<svg width="126" height="126" viewBox="0 0 126 126" fill="none" xmlns="http://www.w3.org/2000/svg">
<path fill-rule="evenodd" clip-rule="evenodd" d="M4 22C4 12.0589 12.0589 4 22 4C31.9411 4 40 12.0589 40 22C40 31.9411 31.9411 40 22 40C12.0589 40 4 31.9411 4 22ZM22 0C9.84974 0 0 9.84974 0 22C0 34.1503 9.84974 44 22 44C34.1503 44 44 34.1503 44 22C44 9.84974 34.1503 0 22 0ZM53 6C53 4.89543 53.8954 4 55 4C56.1046 4 57 4.89543 57 6C57 7.10457 56.1046 8 55 8C53.8954 8 53 7.10457 53 6ZM55 0C51.6863 0 49 2.68629 49 6C49 8.61244 50.6696 10.8349 53 11.6586V23.8284L57 27.8284V36.669C46.9057 38.9596 38.9596 46.9057 36.669 57H27.8284L23.8284 53H11.6586C10.8349 50.6696 8.61244 49 6 49C2.68629 49 0 51.6863 0 55C0 58.3137 2.68629 61 6 61C8.61244 61 10.8349 59.3304 11.6586 57H22.1716L26.1716 61H36.073C36.0246 61.6604 36 62.3273 36 63C36 63.6727 36.0246 64.3396 36.073 65H26.1716L22.1716 69H11.6586C10.8349 66.6696 8.61244 65 6 65C2.68629 65 0 67.6863 0 71C0 74.3137 2.68629 77 6 77C8.61244 77 10.8349 75.3304 11.6586 73H23.8284L27.8284 69H36.669C38.9596 79.0943 46.9057 87.0404 57 89.3309V98.1716L53 102.172V114.341C50.6696 115.165 49 117.388 49 120C49 123.314 51.6863 126 55 126C58.3137 126 61 123.314 61 120C61 117.388 59.3304 115.165 57 114.341V103.828L61 99.8284V89.927C61.6604 89.9754 62.3273 90 63 90C63.6727 90 64.3396 89.9754 65 89.927V99.8284L69 103.828V114.341C66.6696 115.165 65 117.388 65 120C65 123.314 67.6863 126 71 126C74.3137 126 77 123.314 77 120C77 117.388 75.3304 115.165 73 114.341V102.172L69 98.1716V89.3309C79.0943 87.0404 87.0404 79.0943 89.3309 69H98.1716L102.172 73H114.341C115.165 75.3304 117.388 77 120 77C123.314 77 126 74.3137 126 71C126 67.6863 123.314 65 120 65C117.388 65 115.165 66.6696 114.341 69H103.828L99.8284 65H89.927C89.9754 64.3396 90 63.6727 90 63C90 62.3273 89.9754 61.6604 89.927 61H99.8284L103.828 57H114.341C115.165 59.3304 117.388 61 120 61C123.314 61 126 58.3137 126 55C126 51.6863 123.314 49 120 49C117.388 49 115.165 50.6696 114.341 53H102.172L98.1716 57H89.3309C87.0404 46.9057 79.0943 38.9596 69 36.669V27.8284L73 23.8284V11.6586C75.3304 10.8349 77 8.61244 77 6C77 2.68629 74.3137 0 71 0C67.6863 0 65 2.68629 65 6C65 8.61244 66.6696 10.8349 69 11.6586V22.1716L65 26.1716V36.073C64.3396 36.0246 63.6727 36 63 36C62.3273 36 61.6604 36.0246 61 36.073V26.1716L57 22.1716V11.6586C59.3304 10.8349 61 8.61244 61 6C61 2.68629 58.3137 0 55 0ZM40 63C40 50.2975 50.2975 40 63 40C75.7025 40 86 50.2975 86 63C86 75.7025 75.7025 86 63 86C50.2975 86 40 75.7025 40 63ZM71 4C69.8954 4 69 4.89543 69 6C69 7.10457 69.8954 8 71 8C72.1046 8 73 7.10457 73 6C73 4.89543 72.1046 4 71 4ZM104 4C94.0589 4 86 12.0589 86 22C86 31.9411 94.0589 40 104 40C113.941 40 122 31.9411 122 22C122 12.0589 113.941 4 104 4ZM82 22C82 9.84974 91.8497 0 104 0C116.15 0 126 9.84974 126 22C126 34.1503 116.15 44 104 44C91.8497 44 82 34.1503 82 22ZM86 104C86 94.0589 94.0589 86 104 86C113.941 86 122 94.0589 122 104C122 113.941 113.941 122 104 122C94.0589 122 86 113.941 86 104ZM104 82C91.8497 82 82 91.8497 82 104C82 116.15 91.8497 126 104 126C116.15 126 126 116.15 126 104C126 91.8497 116.15 82 104 82ZM22 86C12.0589 86 4 94.0589 4 104C4 113.941 12.0589 122 22 122C31.9411 122 40 113.941 40 104C40 94.0589 31.9411 86 22 86ZM0 104C0 91.8497 9.84974 82 22 82C34.1503 82 44 91.8497 44 104C44 116.15 34.1503 126 22 126C9.84974 126 0 116.15 0 104ZM97.4144 90.5858L94.5859 93.4142L102 100.828V102H98V106H102V110H98V114H102V118H106V114H110V110H106V106H110V102H106V100.829L113.414 93.4142L110.586 90.5858L104 97.1716L97.4144 90.5858ZM100 16C100 13.7909 101.791 12 104 12C106.209 12 108 13.7909 108 16H112C112 11.5817 108.418 8 104 8C99.5817 8 96 11.5817 96 16H91V20H96V24H91V28H96C96 32.4183 99.5817 36 104 36C108.418 36 112 32.4183 112 28H108C108 30.2091 106.209 32 104 32C101.791 32 100 30.2091 100 28H104V24H100V20H104V16H100ZM14 12H20V8H24V12.083C26.8377 12.559 29 15.027 29 18H25C25 16.8954 24.1046 16 23 16H18V18C18 19.1046 18.8954 20 20 20H23C26.3137 20 29 22.6863 29 26V32H24V36H20V32C16.6863 32 14 29.3137 14 26H18C18 27.1046 18.8954 28 20 28H25V26C25 24.8954 24.1046 24 23 24H20C16.6863 24 14 21.3137 14 18V12ZM14 118V106H10V102H14C14 94.268 20.268 88 28 88V92C22.4772 92 18 96.4771 18 102H22V106H18V114H28V118H14ZM6 73C4.89543 73 4 72.1046 4 71C4 69.8954 4.89543 69 6 69C7.10457 69 8 69.8954 8 71C8 72.1046 7.10457 73 6 73ZM4 55C4 56.1046 4.89543 57 6 57C7.10457 57 8 56.1046 8 55C8 53.8954 7.10457 53 6 53C4.89543 53 4 53.8954 4 55ZM53 120C53 121.105 53.8954 122 55 122C56.1046 122 57 121.105 57 120C57 118.895 56.1046 118 55 118C53.8954 118 53 118.895 53 120ZM71 122C69.8954 122 69 121.105 69 120C69 118.895 69.8954 118 71 118C72.1046 118 73 118.895 73 120C73 121.105 72.1046 122 71 122ZM120 73C121.105 73 122 72.1046 122 71C122 69.8954 121.105 69 120 69C118.895 69 118 69.8954 118 71C118 72.1046 118.895 73 120 73ZM122 55C122 56.1046 121.105 57 120 57C118.895 57 118 56.1046 118 55C118 53.8954 118.895 53 120 53C121.105 53 122 53.8954 122 55ZM76.4814 61.921L63 44.7628L49.5186 61.921L63 81.5303L76.4814 61.921ZM63 74.4697L57.7271 66.8002L63 69.1969L68.2728 66.8002L63 74.4697ZM63 64.8031L70.8539 61.2331L63 51.2372L55.146 61.2331L63 64.8031Z" fill="black"/>
</svg>