<svg width="32" height="32" viewBox="0 0 32 32" fill="none" xmlns="http://www.w3.org/2000/svg">
<path d="M1.33325 28L15.9999 2.66669L30.6666 28H1.33325ZM15.1333 20.4H17.1333V12.9334H15.1333V20.4ZM16.1333 24.1C16.4221 24.1 16.661 24.0056 16.8499 23.8167C17.0388 23.6278 17.1333 23.3889 17.1333 23.1C17.1333 22.8111 17.0388 22.5722 16.8499 22.3834C16.661 22.1945 16.4221 22.1 16.1333 22.1C15.8444 22.1 15.6055 22.1945 15.4166 22.3834C15.2277 22.5722 15.1333 22.8111 15.1333 23.1C15.1333 23.3889 15.2277 23.6278 15.4166 23.8167C15.6055 24.0056 15.8444 24.1 16.1333 24.1ZM4.79992 26H27.1999L15.9999 6.66669L4.79992 26Z" fill="#4D5562"/>
</svg>
