<svg xmlns="http://www.w3.org/2000/svg" width="205" height="28" fill="none"><rect width="46" height="16" x="159" y="6.65" fill="#0071E3" rx="8"/><path fill="#FEFEFE" d="M197.09 17.65h-1v-4.79h-1.7v-.85h4.38v.85h-1.68v4.79ZM193.83 16.8v.85h-3.65V12h3.65v.85h-2.64v1.52h2.5v.8h-2.5v1.61h2.64ZM185.48 17.65h-.97V12h.87l2.8 3.95h.03V12h.97v5.64h-.86l-2.8-3.96h-.04v3.96ZM182.13 17.65h-1v-4.79h-1.69v-.85h4.38v.85h-1.69v4.79ZM174.58 16.07h.96c.08.52.59.83 1.29.83.68 0 1.15-.33 1.15-.8 0-.4-.28-.66-1.01-.81l-.61-.13c-1.13-.23-1.66-.76-1.66-1.58 0-1 .87-1.67 2.1-1.67 1.24 0 2.07.68 2.1 1.7h-.97c-.05-.54-.5-.86-1.14-.86-.63 0-1.07.3-1.07.77 0 .38.28.63.98.78l.61.12c1.19.25 1.69.73 1.69 1.56 0 1.08-.85 1.76-2.2 1.76-1.31 0-2.18-.64-2.22-1.67ZM173.94 16.8v.85h-3.65V12h3.65v.85h-2.64v1.52h2.5v.8h-2.5v1.61h2.64ZM167.91 17.65h-1v-4.79h-1.69v-.85h4.38v.85h-1.69v4.79Z"/><mask id="a" width="57" height="28" x=".11" y="0" fill="#000" maskUnits="userSpaceOnUse"><path fill="#fff" d="M.11 0h57v28h-57z"/><path d="M32.09 23.08c-.84 0-1.07-.42-1.12-.77a.85.85 0 0 1 .2-.66c.28-.34.72-.36 1.01-.37h.03c12.26-.4 18.11-2.85 20.86-4.85 1.9-1.67 1.5-2.72 1.38-3.06-1.3-3.46-13-6.3-21.84-6.33h-.2c-.4 0-.88.01-1.2-.35A.87.87 0 0 1 31 6c.11-.86 1.09-.79 1.46-.76h.19c5.18.12 10.78.9 14.98 2.08 5.74 1.61 8.76 3.88 8.98 6.74v.11c-.21 2.88-3.28 5.18-9.13 6.82a64.73 64.73 0 0 1-15.22 2.1h-.17ZM25.57 23.07h-.3l-.2-.02a63.87 63.87 0 0 1-14.99-2.07c-5.74-1.62-8.76-3.88-8.97-6.74v-.11c.21-2.88 3.28-5.18 9.13-6.82a64.73 64.73 0 0 1 15.22-2.1h.11c.88-.02 1.13.4 1.17.77a.85.85 0 0 1-.18.66c-.29.34-.73.36-1.02.38h-.03C13.25 7.4 7.4 9.86 4.65 11.86c-1.9 1.68-1.5 2.72-1.38 3.07 1.3 3.46 13 6.29 21.84 6.32h.2c.39 0 .88 0 1.2.35.17.19.24.44.2.7-.08.68-.7.78-1.14.78ZM28.86 27.29c-.77 0-.8-.67-.86-1.69l-.09-2.67a430.07 430.07 0 0 1 .1-20.24c.04-1.02.08-1.69.85-1.69.76 0 .8.67.85 1.69l.09 2.68a429.91 429.91 0 0 1-.09 20.23c-.05 1.02-.09 1.69-.85 1.69Z"/><path d="M28.86 15.17c-3.31 0-6.42-.03-8.76-.08a98.06 98.06 0 0 1-2.67-.09c-1.02-.05-1.69-.08-1.69-.85s.67-.8 1.69-.86l2.67-.09a427.09 427.09 0 0 1 20.19.09c1.01.05 1.68.09 1.68.86s-.67.8-1.68.85c-.63.04-1.53.07-2.67.1-2.34.04-5.46.07-8.76.07Z"/></mask><path fill="#1D1D1F" d="M32.09 23.08c-.84 0-1.07-.42-1.12-.77a.85.85 0 0 1 .2-.66c.28-.34.72-.36 1.01-.37h.03c12.26-.4 18.11-2.85 20.86-4.85 1.9-1.67 1.5-2.72 1.38-3.06-1.3-3.46-13-6.3-21.84-6.33h-.2c-.4 0-.88.01-1.2-.35A.87.87 0 0 1 31 6c.11-.86 1.09-.79 1.46-.76h.19c5.18.12 10.78.9 14.98 2.08 5.74 1.61 8.76 3.88 8.98 6.74v.11c-.21 2.88-3.28 5.18-9.13 6.82a64.73 64.73 0 0 1-15.22 2.1h-.17ZM25.57 23.07h-.3l-.2-.02a63.87 63.87 0 0 1-14.99-2.07c-5.74-1.62-8.76-3.88-8.97-6.74v-.11c.21-2.88 3.28-5.18 9.13-6.82a64.73 64.73 0 0 1 15.22-2.1h.11c.88-.02 1.13.4 1.17.77a.85.85 0 0 1-.18.66c-.29.34-.73.36-1.02.38h-.03C13.25 7.4 7.4 9.86 4.65 11.86c-1.9 1.68-1.5 2.72-1.38 3.07 1.3 3.46 13 6.29 21.84 6.32h.2c.39 0 .88 0 1.2.35.17.19.24.44.2.7-.08.68-.7.78-1.14.78ZM28.86 27.29c-.77 0-.8-.67-.86-1.69l-.09-2.67a430.07 430.07 0 0 1 .1-20.24c.04-1.02.08-1.69.85-1.69.76 0 .8.67.85 1.69l.09 2.68a429.91 429.91 0 0 1-.09 20.23c-.05 1.02-.09 1.69-.85 1.69Z"/><path fill="#1D1D1F" d="M28.86 15.17c-3.31 0-6.42-.03-8.76-.08a98.06 98.06 0 0 1-2.67-.09c-1.02-.05-1.69-.08-1.69-.85s.67-.8 1.69-.86l2.67-.09a427.09 427.09 0 0 1 20.19.09c1.01.05 1.68.09 1.68.86s-.67.8-1.68.85c-.63.04-1.53.07-2.67.1-2.34.04-5.46.07-8.76.07Z"/><path fill="#1D1D1F" d="M32.09 23.08v.23h.22v-.23h-.22Zm-1.12-.77.23-.03-.23.03Zm.2-.66-.18-.14.17.14Zm1.01-.37v-.23.23Zm.03 0v.22-.22Zm20.86-4.85.13.19.01-.01h.01l-.15-.18Zm1.38-3.06-.21.08.2-.08ZM32.6 7.04v-.22.22Zm-.2 0v-.22.22Zm-1.2-.35-.17.15.17-.15ZM31 6l.22.04L31 6Zm1.46-.76-.02.22.02-.22Zm.19 0v.23-.22Zm14.98 2.08.07-.22-.07.22Zm8.98 6.74-.23.01.23-.01Zm0 .05.22.02v-.04l-.22.02Zm0 .06-.23-.02.23.02Zm-9.13 6.82.06.22-.06-.22Zm-15.22 2.1v.22-.22Zm-.17 0v-.23h-.23v.23h.23Zm-6.52 0h.22v-.23h-.22v.22Zm-.3-.02.01-.22-.02.22Zm-.2-.01v-.23.23Zm-14.99-2.07-.06.22.06-.22Zm-8.97-6.74.23-.01-.23.01Zm0-.05-.23-.02v.04l.23-.02Zm0-.06.23.02-.23-.02Zm9.13-6.82-.06-.22.06.22Zm15.22-2.1V5v.22Zm.1 0v.23h.01V5.2Zm1.18.77-.22.03.22-.03Zm-.18.66.17.15-.17-.15Zm-1.02.38v.22-.22Zm-.03 0v-.23.23ZM4.65 11.86l-.14-.18-.01.01.15.17Zm-1.38 3.07.21-.08-.21.08Zm21.84 6.32v.23-.23Zm.2 0v.23-.23Zm1.2.35.17-.15-.17.15Zm.2.7-.21-.03.22.03Zm-1.14.78h-.23v.23h.23v-.23ZM28 25.6l-.22.01H28Zm-.09-2.67h-.22.22Zm0-17.56h-.22.22Zm.1-2.68-.23-.01H28Zm1.7 0 .23-.01h-.23Zm.09 2.68h.22-.22Zm0 17.56h.22-.22Zm-.09 2.67.23.01h-.23ZM20.1 15.1v.22-.23Zm-2.67-.1-.02.23.02-.23Zm0-1.71-.02-.22.02.22Zm2.67-.09v-.22.22Zm17.52 0v-.22.22Zm2.67.09v-.22.22Zm0 1.71v.23V15Zm-2.67.1v.22-.23Zm-5.53 7.76c-.38 0-.6-.1-.7-.2a.59.59 0 0 1-.2-.38l-.44.06c.03.21.12.46.34.66.22.2.54.3 1 .3v-.44Zm-.9-.58a.62.62 0 0 1 .15-.48l-.35-.29c-.2.23-.28.53-.24.83l.45-.06Zm.15-.48c.2-.26.54-.28.85-.3l-.02-.45c-.28.02-.82.03-1.18.46l.35.29Zm.84-.3h.03v-.45h-.03v.45Zm.04 0c12.28-.39 18.18-2.85 20.98-4.88l-.26-.37c-2.7 1.97-8.5 4.41-20.74 4.8l.02.45Zm21-4.9c.97-.86 1.38-1.57 1.52-2.15.14-.58-.01-.97-.08-1.16l-.42.16c.06.15.17.45.06.9-.1.45-.45 1.1-1.38 1.92l.3.33Zm1.44-3.31c-.36-.95-1.4-1.8-2.82-2.56a27.15 27.15 0 0 0-5.42-2.03 56.4 56.4 0 0 0-13.8-1.88v.45c4.39.02 9.5.73 13.68 1.87 2.09.57 3.93 1.24 5.33 1.98 1.4.75 2.32 1.54 2.6 2.33l.43-.16ZM32.6 6.82H32.41v.45H32.62v-.45Zm-.2 0c-.42 0-.8 0-1.03-.27l-.34.3c.4.44 1 .42 1.37.42v-.45Zm-1.03-.27a.65.65 0 0 1-.16-.52l-.44-.06c-.05.32.05.64.26.87l.34-.3Zm-.16-.52a.6.6 0 0 1 .16-.36.7.7 0 0 1 .31-.18c.27-.07.56-.05.75-.04l.03-.45c-.18 0-.55-.04-.9.06-.18.05-.36.14-.5.3-.16.14-.26.35-.3.61l.45.06Zm1.22-.58.2.01.02-.45h-.19l-.03.44Zm.2.01c5.17.11 10.76.89 14.93 2.06l.13-.43a64.1 64.1 0 0 0-15.05-2.08v.45Zm14.93 2.06c2.86.8 5.02 1.77 6.49 2.87 1.46 1.1 2.22 2.33 2.32 3.67l.45-.03c-.11-1.51-.97-2.84-2.5-4C52.8 8.88 50.58 7.9 47.7 7.1l-.13.43Zm8.81 6.55v.05l.45-.04v-.05l-.45.04Zm0 .01v.06l.45.04v-.06l-.44-.04Zm0 .06c-.1 1.36-.87 2.6-2.36 3.72-1.49 1.11-3.69 2.09-6.6 2.9l.12.44c2.94-.83 5.2-1.82 6.75-2.98 1.56-1.17 2.43-2.52 2.54-4.05l-.45-.03Zm-8.96 6.63a64.5 64.5 0 0 1-15.16 2.08v.45c5.27-.1 10.98-.9 15.28-2.1l-.12-.43Zm-15.18 2.08h-.09v.45h.08v-.45Zm-.1 0h-.05v.45h.05v-.45Zm-.28.23h.45-.45Zm-6.3-.23-.28-.01-.04.44.33.02v-.45Zm-.28-.01-.2-.02-.02.45.19.02.03-.45Zm-.2-.02a63.65 63.65 0 0 1-14.94-2.05l-.12.43a64.1 64.1 0 0 0 15.04 2.07l.01-.45Zm-14.94-2.05C7.3 19.96 5.13 19 3.66 17.9c-1.46-1.1-2.22-2.33-2.32-3.67l-.45.03c.11 1.51.97 2.84 2.5 4 1.53 1.15 3.75 2.13 6.63 2.94l.12-.43Zm-8.8-6.54v-.06l-.46.04v.05l.46-.03Zm0-.02v-.06l-.45-.04v.06l.44.04Zm0-.06c.1-1.36.87-2.6 2.36-3.72 1.49-1.11 3.69-2.09 6.6-2.9l-.12-.44c-2.94.83-5.2 1.82-6.75 2.98C1.87 11.24 1 12.6.89 14.12l.45.03Zm8.96-6.63a64.5 64.5 0 0 1 15.16-2.08v-.45c-5.27.1-10.98.9-15.28 2.1l.12.43Zm15.18-2.08h.08v-.45h-.08v.45Zm.1 0c.4-.01.62.08.74.19.13.1.18.24.2.38l.45-.06a1.04 1.04 0 0 0-.36-.67c-.23-.2-.57-.3-1.05-.3l.01.46Zm.94.57a.63.63 0 0 1-.14.49l.35.29c.19-.24.28-.53.24-.84l-.45.06Zm-.14.49c-.2.25-.55.28-.85.3l.02.44c.27-.01.82-.03 1.18-.45l-.35-.3Zm-.84.3h-.03v.44h.03V6.8Zm-.04 0c-12.28.38-18.18 2.84-20.99 4.88l.27.36c2.7-1.96 8.5-4.4 20.74-4.8l-.02-.45Zm-21 4.9c-.97.85-1.38 1.57-1.52 2.14-.14.58.01.98.08 1.17l.42-.16c-.06-.16-.17-.45-.06-.9.1-.46.45-1.1 1.38-1.92l-.3-.34ZM3.06 15c.35.95 1.4 1.81 2.82 2.57 1.44.76 3.32 1.45 5.42 2.02a56.39 56.39 0 0 0 13.8 1.89v-.45c-4.39-.02-9.5-.73-13.68-1.87a26.72 26.72 0 0 1-5.33-1.99c-1.41-.75-2.32-1.54-2.6-2.32l-.43.16Zm22.05 6.48H25.3v-.45H25.1v.45Zm.2 0c.42 0 .8 0 1.03.27l.34-.3c-.4-.45-1-.43-1.38-.42v.45Zm1.03.27c.12.14.18.33.16.52l.44.06a1.1 1.1 0 0 0-.26-.88l-.34.3Zm.16.52c-.04.26-.17.4-.33.47-.17.1-.4.12-.6.12v.45c.23 0 .54-.03.8-.16.29-.15.52-.4.57-.82l-.44-.06Zm-.7.81h-.46.45Zm3.06 3.98a.54.54 0 0 1-.32-.07.48.48 0 0 1-.17-.24c-.1-.26-.12-.64-.14-1.16l-.45.02c.02.5.04.96.17 1.3.07.17.17.33.33.44.16.11.35.16.58.16v-.45Zm-.63-1.47a98.7 98.7 0 0 1-.1-2.67l-.44.01c.02 1.15.05 2.05.09 2.68l.45-.02Zm-.1-2.67c-.04-2.35-.07-5.46-.07-8.77h-.45c0 3.31.03 6.43.08 8.78l.45-.01Zm-.07-8.77c0-3.32.03-6.43.08-8.78h-.45c-.05 2.34-.08 5.46-.08 8.78h.45Zm.08-8.78c.02-1.14.05-2.04.09-2.67l-.45-.02c-.04.63-.07 1.53-.09 2.68l.45.01Zm.09-2.67c.02-.52.05-.9.14-1.16.05-.12.1-.19.17-.23a.54.54 0 0 1 .32-.08V.78a.98.98 0 0 0-.58.16.92.92 0 0 0-.33.44c-.13.34-.15.8-.17 1.3l.45.02Zm.63-1.47c.16 0 .25.03.32.08.06.04.12.11.16.23.1.26.12.64.15 1.16l.45-.02c-.03-.5-.05-.96-.18-1.3a.93.93 0 0 0-.32-.44.98.98 0 0 0-.58-.16v.45Zm.63 1.47.09 2.67h.44a98.69 98.69 0 0 0-.08-2.7l-.45.03Zm.09 2.67c.05 2.34.07 5.46.07 8.78h.45c0-3.32-.02-6.44-.08-8.79l-.44.01Zm.07 8.78c0 3.31-.02 6.43-.07 8.77l.44.01c.06-2.35.08-5.47.08-8.78h-.45Zm-.07 8.77a98.36 98.36 0 0 1-.1 2.67l.46.02c.03-.63.06-1.53.08-2.68l-.44-.01Zm-.1 2.67c-.02.52-.04.9-.14 1.16-.04.12-.1.19-.16.24a.54.54 0 0 1-.32.07v.45c.22 0 .42-.05.58-.16a.93.93 0 0 0 .32-.44c.13-.34.15-.8.18-1.3l-.45-.02Zm-.62-10.64c-3.31 0-6.42-.03-8.76-.08v.45c2.33.05 5.45.08 8.76.08v-.45Zm-8.76-.08a97.74 97.74 0 0 1-2.66-.09l-.03.45 2.68.09.01-.45Zm-2.66-.09c-.52-.03-.9-.05-1.16-.15a.48.48 0 0 1-.23-.16.54.54 0 0 1-.08-.32h-.45c0 .22.05.42.16.58.11.16.27.26.44.32.34.13.8.15 1.3.18l.02-.45Zm-1.47-.63c0-.16.03-.26.08-.32a.48.48 0 0 1 .24-.17c.25-.1.63-.12 1.15-.15l-.03-.44c-.49.02-.95.04-1.28.17a.93.93 0 0 0-.45.33.99.99 0 0 0-.16.58h.45Zm1.47-.64c.62-.03 1.52-.06 2.66-.08v-.45c-1.15.02-2.05.05-2.69.09l.03.44Zm2.66-.08c2.34-.05 5.45-.08 8.76-.08v-.45c-3.31 0-6.43.03-8.77.08l.01.45Zm8.76-.08c3.3 0 6.41.03 8.75.08l.01-.45c-2.34-.05-5.45-.08-8.76-.08v.45Zm8.75.08c1.14.02 2.04.05 2.67.08l.02-.44c-.63-.04-1.53-.07-2.68-.1v.46Zm2.67.08c.52.03.9.05 1.15.15.12.05.19.1.24.17.04.06.08.16.08.32h.44a.99.99 0 0 0-.16-.58.92.92 0 0 0-.44-.33c-.34-.13-.8-.15-1.3-.17l-.01.44Zm1.47.64c0 .16-.04.25-.08.32a.48.48 0 0 1-.24.16c-.26.1-.63.12-1.15.15l.02.45c.49-.03.95-.05 1.29-.18a.92.92 0 0 0 .44-.32.99.99 0 0 0 .16-.58h-.44Zm-1.47.63-2.67.09.01.45c1.15-.03 2.05-.06 2.68-.1l-.02-.44Zm-2.67.09c-2.34.05-5.45.08-8.75.08v.45c3.3 0 6.42-.03 8.76-.08v-.45Zm-5.35 7.98h-.02v.45h.02v-.45Zm-6.8-17.41h.02v-.45h-.02v.45Z" mask="url(#a)"/><path fill="#1D1D1F" d="M142.68 10.29c.4-.74.96-1.3 1.68-1.68.73-.4 1.6-.6 2.6-.6.86 0 1.59.12 2.18.39.62.26 1.12.63 1.5 1.13.39.49.67 1.07.84 1.76.2.68.3 1.44.3 2.28v8.9h-3.13v-8.13c0-.48-.03-.94-.08-1.4a3.28 3.28 0 0 0-.37-1.2 1.95 1.95 0 0 0-.82-.87 2.75 2.75 0 0 0-1.42-.32c-.6 0-1.1.11-1.52.34-.42.21-.76.51-1.03.9-.26.38-.45.85-.58 1.39-.1.54-.15 1.13-.15 1.76v7.52h-3.13V8.32h3.13v1.97ZM130.67 20.25c.53 0 1-.1 1.45-.29a3.54 3.54 0 0 0 1.91-2.39c.2-.61.3-1.33.3-2.16 0-.8-.1-1.51-.3-2.12a4.17 4.17 0 0 0-.76-1.53 3.3 3.3 0 0 0-2.6-1.2 3.3 3.3 0 0 0-2.6 1.2c-.34.4-.6.91-.8 1.53a7.79 7.79 0 0 0-.25 2.12c0 .83.08 1.55.26 2.16.2.6.45 1.1.79 1.5.33.38.72.68 1.15.9.44.19.92.28 1.45.28Zm0-12.25c.9 0 1.75.15 2.58.45a6.36 6.36 0 0 1 3.73 3.65c.38.93.58 2.04.58 3.31a8.6 8.6 0 0 1-.58 3.32 6.23 6.23 0 0 1-3.73 3.65 7.94 7.94 0 0 1-5.16 0 6.5 6.5 0 0 1-2.2-1.34 6.82 6.82 0 0 1-1.53-2.31 8.6 8.6 0 0 1-.58-3.32c0-1.27.2-2.38.58-3.3a6.3 6.3 0 0 1 3.73-3.65c.83-.31 1.69-.46 2.58-.46ZM112.96 10.29c.4-.74.96-1.3 1.68-1.68.74-.4 1.6-.6 2.6-.6.86 0 1.59.12 2.19.39.61.26 1.1.63 1.5 1.13.38.49.66 1.07.84 1.76.19.68.29 1.44.29 2.28v8.9h-3.13v-8.13c0-.48-.03-.94-.08-1.4a3.28 3.28 0 0 0-.37-1.2 1.95 1.95 0 0 0-.81-.87 2.75 2.75 0 0 0-1.42-.32c-.6 0-1.1.11-1.53.34-.42.21-.76.51-1.03.9-.26.38-.45.85-.57 1.39-.1.54-.16 1.13-.16 1.76v7.52h-3.13V3.4h3.13v6.89ZM97.44 15.39c0 .82.09 1.54.26 2.15.2.6.46 1.1.8 1.5.33.4.71.71 1.15.92.46.2.94.3 1.45.3 1.1 0 1.96-.44 2.57-1.3.62-.87.92-2.06.92-3.57 0-1.5-.3-2.67-.92-3.52a2.97 2.97 0 0 0-2.57-1.32 3.4 3.4 0 0 0-2.6 1.21c-.34.39-.6.89-.8 1.5a7.78 7.78 0 0 0-.26 2.13Zm.13-7.07v1.89c.42-.7 1-1.25 1.71-1.63a5.2 5.2 0 0 1 2.5-.58c.86 0 1.66.18 2.4.53.75.33 1.4.82 1.94 1.47s.96 1.43 1.26 2.34c.31.91.47 1.93.47 3.05 0 1.14-.16 2.16-.47 3.07-.3.92-.72 1.7-1.26 2.34a5.58 5.58 0 0 1-6.84 1.42 4.37 4.37 0 0 1-1.7-1.63v6.47h-3.14V8.32h3.13ZM85.57 20.25c.52 0 1-.1 1.44-.29a3.55 3.55 0 0 0 1.92-2.39c.2-.61.29-1.33.29-2.16 0-.8-.1-1.51-.29-2.12a4.15 4.15 0 0 0-.76-1.53 3.3 3.3 0 0 0-2.6-1.2 3.3 3.3 0 0 0-2.6 1.2c-.34.4-.6.91-.8 1.53a7.78 7.78 0 0 0-.26 2.12c0 .83.09 1.55.26 2.16.2.6.46 1.1.8 1.5.33.38.71.68 1.15.9.44.19.92.28 1.45.28Zm0-12.25c.89 0 1.75.15 2.57.45a6.36 6.36 0 0 1 3.73 3.65c.4.93.58 2.04.58 3.31 0 1.28-.19 2.39-.57 3.32a6.23 6.23 0 0 1-3.73 3.65 7.94 7.94 0 0 1-5.16 0 6.5 6.5 0 0 1-2.2-1.34 6.83 6.83 0 0 1-1.53-2.31 8.61 8.61 0 0 1-.58-3.32c0-1.27.2-2.38.58-3.3a6.3 6.3 0 0 1 3.73-3.65c.82-.31 1.68-.46 2.58-.46ZM67.44 13.81a13.1 13.1 0 0 1-2.13-.63 6.6 6.6 0 0 1-1.76-1.08c-.5-.44-.89-.95-1.19-1.55a5.07 5.07 0 0 1-.42-2.13c0-.9.21-1.67.63-2.34.42-.66.98-1.22 1.66-1.65a7.7 7.7 0 0 1 2.31-1.03 10.1 10.1 0 0 1 5.26 0 6.39 6.39 0 0 1 4.81 5.34h-3.23a3.56 3.56 0 0 0-.66-1.42c-.3-.39-.65-.69-1.05-.9a6.18 6.18 0 0 0-3.92-.5c-.42.1-.81.24-1.18.45-.35.2-.65.45-.9.76-.24.32-.36.71-.36 1.19 0 .73.26 1.3.79 1.7.54.4 1.22.66 2.05.82l2.34.45c.84.15 1.64.37 2.41.63.8.24 1.49.59 2.08 1.02.61.44 1.1.98 1.47 1.63.37.65.56 1.46.56 2.42 0 .97-.22 1.82-.66 2.55a5.9 5.9 0 0 1-1.74 1.82 8 8 0 0 1-2.42 1.07c-.89.25-1.8.37-2.76.37-1.14 0-2.18-.15-3.12-.44a7.58 7.58 0 0 1-2.45-1.3 6.73 6.73 0 0 1-1.66-2.1 7.85 7.85 0 0 1-.78-2.8h3.28a5 5 0 0 0 1.68 2.94c.83.64 1.9.97 3.21.97.56 0 1.09-.06 1.58-.19.5-.12.95-.3 1.31-.55a2.45 2.45 0 0 0 1.18-2.13c0-.49-.12-.9-.36-1.23a2.85 2.85 0 0 0-.92-.84c-.37-.23-.79-.4-1.26-.53-.46-.14-.91-.25-1.37-.34l-2.31-.45Z"/></svg>