<svg width="554" height="102" viewBox="0 0 554 102" fill="none" xmlns="http://www.w3.org/2000/svg">
<path d="M261.028 35.5391C260.729 32.7479 259.472 30.5746 257.256 29.0192C255.062 27.4638 252.207 26.6861 248.691 26.6861C246.219 26.6861 244.099 27.0589 242.331 27.8047C240.563 28.5504 239.21 29.5625 238.272 30.8409C237.335 32.1193 236.855 33.5788 236.834 35.2195C236.834 36.5831 237.143 37.7656 237.761 38.767C238.4 39.7685 239.263 40.6207 240.349 41.3239C241.436 42.0057 242.64 42.581 243.961 43.0497C245.282 43.5185 246.614 43.9126 247.956 44.2322L254.092 45.7663C256.564 46.3416 258.94 47.1193 261.219 48.0994C263.521 49.0795 265.577 50.3153 267.388 51.8068C269.22 53.2983 270.669 55.0987 271.734 57.2081C272.8 59.3175 273.332 61.7891 273.332 64.6229C273.332 68.4581 272.352 71.8352 270.392 74.7543C268.432 77.652 265.598 79.9212 261.891 81.5618C258.205 83.1811 253.741 83.9908 248.499 83.9908C243.407 83.9908 238.986 83.2024 235.236 81.6257C231.507 80.049 228.588 77.7479 226.479 74.7223C224.391 71.6967 223.261 68.0107 223.091 63.6641H234.756C234.927 65.9439 235.63 67.8402 236.866 69.353C238.102 70.8658 239.71 71.995 241.692 72.7408C243.695 73.4865 245.932 73.8594 248.403 73.8594C250.982 73.8594 253.24 73.4759 255.179 72.7088C257.139 71.9205 258.673 70.8338 259.781 69.4489C260.889 68.0426 261.454 66.402 261.475 64.527C261.454 62.8224 260.953 61.4162 259.973 60.3082C258.993 59.179 257.619 58.2415 255.85 57.4957C254.103 56.7287 252.058 56.0469 249.714 55.4503L242.267 53.5327C236.876 52.1477 232.615 50.049 229.483 47.2365C226.372 44.4027 224.817 40.642 224.817 35.9545C224.817 32.098 225.861 28.7209 227.949 25.8232C230.058 22.9254 232.924 20.6776 236.546 19.0795C240.168 17.4602 244.27 16.6506 248.851 16.6506C253.496 16.6506 257.565 17.4602 261.06 19.0795C264.575 20.6776 267.335 22.9041 269.337 25.7592C271.34 28.593 272.374 31.853 272.438 35.5391H261.028ZM304.805 83.9588C300.011 83.9588 295.856 82.9041 292.341 80.7947C288.825 78.6854 286.098 75.7344 284.159 71.9418C282.241 68.1491 281.282 63.7173 281.282 58.6463C281.282 53.5753 282.241 49.1328 284.159 45.3189C286.098 41.505 288.825 38.5433 292.341 36.4339C295.856 34.3246 300.011 33.2699 304.805 33.2699C309.599 33.2699 313.754 34.3246 317.27 36.4339C320.785 38.5433 323.502 41.505 325.42 45.3189C327.358 49.1328 328.328 53.5753 328.328 58.6463C328.328 63.7173 327.358 68.1491 325.42 71.9418C323.502 75.7344 320.785 78.6854 317.27 80.7947C313.754 82.9041 309.599 83.9588 304.805 83.9588ZM304.869 74.6903C307.469 74.6903 309.642 73.9766 311.389 72.549C313.136 71.1001 314.436 69.1612 315.288 66.7322C316.162 64.3033 316.599 61.5973 316.599 58.6143C316.599 55.6101 316.162 52.8935 315.288 50.4645C314.436 48.0142 313.136 46.0646 311.389 44.6158C309.642 43.1669 307.469 42.4425 304.869 42.4425C302.206 42.4425 299.99 43.1669 298.221 44.6158C296.474 46.0646 295.164 48.0142 294.29 50.4645C293.438 52.8935 293.012 55.6101 293.012 58.6143C293.012 61.5973 293.438 64.3033 294.29 66.7322C295.164 69.1612 296.474 71.1001 298.221 72.549C299.99 73.9766 302.206 74.6903 304.869 74.6903ZM338.148 101.409V33.9091H349.526V42.027H350.197C350.793 40.8338 351.635 39.566 352.722 38.2237C353.808 36.8601 355.278 35.6989 357.132 34.7401C358.986 33.7599 361.351 33.2699 364.227 33.2699C368.02 33.2699 371.44 34.2393 374.487 36.1783C377.555 38.0959 379.984 40.9403 381.773 44.7116C383.585 48.4616 384.49 53.0639 384.49 58.5185C384.49 63.9091 383.606 68.4901 381.837 72.2614C380.069 76.0327 377.661 78.9091 374.614 80.8906C371.567 82.8722 368.116 83.8629 364.259 83.8629C361.447 83.8629 359.114 83.3942 357.26 82.4567C355.406 81.5192 353.915 80.3899 352.786 79.0689C351.678 77.7266 350.815 76.4588 350.197 75.2656H349.717V101.409H338.148ZM349.494 58.4545C349.494 61.6293 349.941 64.4098 350.836 66.7962C351.752 69.1825 353.063 71.0469 354.767 72.3892C356.493 73.7102 358.581 74.3707 361.031 74.3707C363.588 74.3707 365.729 73.6889 367.455 72.3253C369.181 70.9403 370.481 69.0547 371.354 66.6683C372.249 64.2607 372.697 61.5227 372.697 58.4545C372.697 55.4077 372.26 52.7017 371.386 50.3366C370.513 47.9716 369.213 46.1179 367.487 44.7756C365.761 43.4332 363.609 42.7621 361.031 42.7621C358.56 42.7621 356.461 43.4119 354.735 44.7116C353.009 46.0114 351.699 47.8331 350.804 50.1768C349.93 52.5206 349.494 55.2798 349.494 58.4545ZM405.967 54.2358V83H394.398V17.5455H405.712V42.2507H406.287C407.438 39.4808 409.217 37.2969 411.624 35.6989C414.053 34.0795 417.143 33.2699 420.893 33.2699C424.302 33.2699 427.274 33.9837 429.81 35.4112C432.345 36.8388 434.305 38.9268 435.69 41.6754C437.097 44.424 437.8 47.7798 437.8 51.7429V83H426.23V53.5327C426.23 50.2301 425.378 47.6626 423.673 45.8303C421.99 43.9766 419.625 43.0497 416.578 43.0497C414.533 43.0497 412.7 43.4972 411.081 44.392C409.483 45.2656 408.226 46.5334 407.31 48.1953C406.415 49.8572 405.967 51.8707 405.967 54.2358ZM471.006 83.9588C466.212 83.9588 462.058 82.9041 458.542 80.7947C455.026 78.6854 452.299 75.7344 450.36 71.9418C448.442 68.1491 447.484 63.7173 447.484 58.6463C447.484 53.5753 448.442 49.1328 450.36 45.3189C452.299 41.505 455.026 38.5433 458.542 36.4339C462.058 34.3246 466.212 33.2699 471.006 33.2699C475.8 33.2699 479.955 34.3246 483.471 36.4339C486.987 38.5433 489.703 41.505 491.621 45.3189C493.56 49.1328 494.529 53.5753 494.529 58.6463C494.529 63.7173 493.56 68.1491 491.621 71.9418C489.703 75.7344 486.987 78.6854 483.471 80.7947C479.955 82.9041 475.8 83.9588 471.006 83.9588ZM471.07 74.6903C473.67 74.6903 475.843 73.9766 477.59 72.549C479.337 71.1001 480.637 69.1612 481.489 66.7322C482.363 64.3033 482.8 61.5973 482.8 58.6143C482.8 55.6101 482.363 52.8935 481.489 50.4645C480.637 48.0142 479.337 46.0646 477.59 44.6158C475.843 43.1669 473.67 42.4425 471.07 42.4425C468.407 42.4425 466.191 43.1669 464.423 44.6158C462.675 46.0646 461.365 48.0142 460.491 50.4645C459.639 52.8935 459.213 55.6101 459.213 58.6143C459.213 61.5973 459.639 64.3033 460.491 66.7322C461.365 69.1612 462.675 71.1001 464.423 72.549C466.191 73.9766 468.407 74.6903 471.07 74.6903ZM515.919 54.2358V83H504.349V33.9091H515.407V42.2507H515.982C517.112 39.5021 518.912 37.3182 521.384 35.6989C523.877 34.0795 526.955 33.2699 530.62 33.2699C534.008 33.2699 536.959 33.9943 539.473 35.4432C542.009 36.892 543.969 38.9908 545.354 41.7393C546.76 44.4879 547.453 47.8224 547.431 51.7429V83H535.862V53.5327C535.862 50.2514 535.009 47.6839 533.305 45.8303C531.622 43.9766 529.289 43.0497 526.306 43.0497C524.281 43.0497 522.481 43.4972 520.904 44.392C519.349 45.2656 518.124 46.5334 517.229 48.1953C516.355 49.8572 515.919 51.8707 515.919 54.2358Z" fill="#1F1E1B"/>
<path d="M95.12 3.91593C96.2613 0.799054 99.3775 -1.03414 102.226 0.624303C104.809 2.17437 105.518 5.53287 105.868 8.35806C106.916 19.6381 107.124 31.2619 107.346 42.645C113.331 42.7757 119.484 42.9482 125.345 43.125C131.87 43.5413 138.654 43.3582 145.071 44.7994C152.396 46.89 151.163 54.3375 143.971 55.5207C134.321 56.9282 126.203 56.8119 116.161 57.1701C113.196 57.2457 110.267 57.3294 107.353 57.3944C107.223 63.3632 107.051 69.4994 106.875 75.3451C106.459 81.8701 106.642 88.6538 105.201 95.0707C103.11 102.396 95.6625 101.163 94.4794 93.9707C93.0713 84.3207 93.1875 76.2032 92.8294 66.1607C92.755 63.2132 92.6712 60.3007 92.6062 57.4044C92.0581 57.3869 91.5094 57.3676 90.9594 57.3457C84.1594 57.1626 77.6756 57.0707 70.9169 56.7538C65.3 56.2794 59.3244 56.6457 53.9163 54.8794C50.7994 53.7382 48.9662 50.6225 50.6244 47.7732C52.1744 45.1907 55.5331 44.4825 58.3581 44.1325C69.6213 43.0857 81.2269 42.8757 92.5937 42.6544C92.6112 42.09 92.6312 41.525 92.6544 40.9594C92.8375 34.1594 92.9294 27.675 93.2456 20.9169C93.7206 15.3 93.3544 9.32444 95.12 3.91593ZM63.4081 15.115C69.2 14.84 75 14.6069 75 20.0888C75 25.0713 69.3331 25.9044 69.3331 25.9044C57.7 27.5706 38.5475 30.8956 28.6175 35.0444C13.6856 41.285 12.4554 47.4919 12.4554 50C12.4554 52.5075 13.6856 58.7151 28.6175 64.9557C38.5475 69.1044 57.7 72.4376 69.3331 74.0957C69.3331 74.0957 75 74.9282 75 79.9107C75 85.3932 69.1913 85.1595 63.4081 84.8845C28.6088 83.2351 0.0001875 68.8963 0 49.7919C0 30.6875 28.6088 16.7819 63.4081 15.115ZM125 20.0888C125 14.6069 130.8 14.84 136.592 15.115C171.391 16.765 200 30.67 200 49.7744V49.7919C200 68.8963 171.391 83.2351 136.592 84.8845C130.809 85.1595 125 85.3932 125 79.9107C125 74.9282 130.667 74.0957 130.667 74.0957C142.3 72.4376 161.453 69.1044 171.383 64.9557C186.314 58.7151 187.544 52.5075 187.544 50C187.544 47.4919 186.314 41.285 171.383 35.0444C161.453 30.8956 142.3 27.5706 130.667 25.9044C130.667 25.9044 125 25.0713 125 20.0888Z" fill="#1F1E1B"/>
</svg>
