<svg width="724" height="102" viewBox="0 0 724 102" fill="none" xmlns="http://www.w3.org/2000/svg">
<path d="M261.529 35.5389C261.23 32.7477 259.973 30.5744 257.757 29.019C255.563 27.4636 252.708 26.6859 249.192 26.6859C246.72 26.6859 244.6 27.0587 242.832 27.8045C241.064 28.5502 239.711 29.5623 238.773 30.8407C237.836 32.1191 237.356 33.5786 237.335 35.2193C237.335 36.5829 237.644 37.7654 238.262 38.7668C238.901 39.7683 239.764 40.6205 240.85 41.3237C241.937 42.0055 243.141 42.5808 244.462 43.0495C245.783 43.5183 247.115 43.9124 248.457 44.232L254.593 45.7661C257.065 46.3414 259.441 47.1191 261.72 48.0992C264.022 49.0793 266.078 50.3151 267.889 51.8066C269.721 53.2981 271.17 55.0985 272.235 57.2079C273.301 59.3173 273.833 61.7889 273.833 64.6227C273.833 68.4579 272.853 71.835 270.893 74.7541C268.933 77.6518 266.099 79.921 262.392 81.5616C258.706 83.1809 254.242 83.9906 249 83.9906C243.908 83.9906 239.487 83.2022 235.737 81.6255C232.008 80.0488 229.089 77.7477 226.98 74.7221C224.892 71.6965 223.762 68.0105 223.592 63.6639H235.257C235.428 65.9437 236.131 67.84 237.367 69.3528C238.603 70.8656 240.211 71.9948 242.193 72.7406C244.196 73.4863 246.433 73.8592 248.904 73.8592C251.483 73.8592 253.741 73.4757 255.68 72.7086C257.64 71.9203 259.174 70.8336 260.282 69.4487C261.39 68.0424 261.955 66.4018 261.976 64.5268C261.955 62.8222 261.454 61.416 260.474 60.308C259.494 59.1788 258.12 58.2413 256.351 57.4955C254.604 56.7285 252.559 56.0467 250.215 55.4501L242.768 53.5325C237.377 52.1475 233.116 50.0488 229.984 47.2363C226.873 44.4025 225.318 40.6418 225.318 35.9543C225.318 32.0978 226.362 28.7207 228.45 25.823C230.559 22.9252 233.425 20.6774 237.047 19.0793C240.669 17.46 244.771 16.6504 249.352 16.6504C253.997 16.6504 258.066 17.46 261.561 19.0793C265.076 20.6774 267.836 22.9039 269.838 25.759C271.841 28.5928 272.875 31.8528 272.939 35.5389H261.529ZM305.306 83.9586C300.512 83.9586 296.357 82.9039 292.842 80.7945C289.326 78.6852 286.599 75.7342 284.66 71.9416C282.742 68.1489 281.783 63.7171 281.783 58.6461C281.783 53.5751 282.742 49.1326 284.66 45.3187C286.599 41.5048 289.326 38.5431 292.842 36.4337C296.357 34.3244 300.512 33.2697 305.306 33.2697C310.1 33.2697 314.255 34.3244 317.771 36.4337C321.286 38.5431 324.003 41.5048 325.921 45.3187C327.859 49.1326 328.829 53.5751 328.829 58.6461C328.829 63.7171 327.859 68.1489 325.921 71.9416C324.003 75.7342 321.286 78.6852 317.771 80.7945C314.255 82.9039 310.1 83.9586 305.306 83.9586ZM305.37 74.6901C307.97 74.6901 310.143 73.9764 311.89 72.5488C313.637 71.0999 314.937 69.161 315.789 66.732C316.663 64.3031 317.1 61.5971 317.1 58.6141C317.1 55.6099 316.663 52.8933 315.789 50.4643C314.937 48.014 313.637 46.0644 311.89 44.6156C310.143 43.1667 307.97 42.4423 305.37 42.4423C302.707 42.4423 300.491 43.1667 298.722 44.6156C296.975 46.0644 295.665 48.014 294.791 50.4643C293.939 52.8933 293.513 55.6099 293.513 58.6141C293.513 61.5971 293.939 64.3031 294.791 66.732C295.665 69.161 296.975 71.0999 298.722 72.5488C300.491 73.9764 302.707 74.6901 305.37 74.6901ZM338.649 101.409V33.9089H350.027V42.0268H350.698C351.294 40.8336 352.136 39.5658 353.223 38.2235C354.309 36.8599 355.779 35.6987 357.633 34.7399C359.487 33.7597 361.852 33.2697 364.728 33.2697C368.521 33.2697 371.941 34.2391 374.988 36.1781C378.056 38.0957 380.485 40.9401 382.274 44.7114C384.086 48.4614 384.991 53.0637 384.991 58.5183C384.991 63.9089 384.107 68.4899 382.338 72.2612C380.57 76.0325 378.162 78.9089 375.115 80.8904C372.068 82.872 368.617 83.8627 364.76 83.8627C361.948 83.8627 359.615 83.394 357.761 82.4565C355.907 81.519 354.416 80.3897 353.287 79.0687C352.179 77.7264 351.316 76.4586 350.698 75.2654H350.218V101.409H338.649ZM349.995 58.4543C349.995 61.6291 350.442 64.4096 351.337 66.796C352.253 69.1823 353.564 71.0467 355.268 72.389C356.994 73.71 359.082 74.3705 361.532 74.3705C364.089 74.3705 366.23 73.6887 367.956 72.3251C369.682 70.9401 370.982 69.0545 371.855 66.6681C372.75 64.2605 373.198 61.5225 373.198 58.4543C373.198 55.4075 372.761 52.7015 371.887 50.3364C371.014 47.9714 369.714 46.1177 367.988 44.7754C366.262 43.433 364.11 42.7619 361.532 42.7619C359.061 42.7619 356.962 43.4117 355.236 44.7114C353.51 46.0112 352.2 47.8329 351.305 50.1766C350.431 52.5204 349.995 55.2796 349.995 58.4543ZM406.468 54.2356V82.9998H394.899V17.5453H406.213V42.2505H406.788C407.939 39.4806 409.718 37.2967 412.125 35.6987C414.554 34.0793 417.644 33.2697 421.394 33.2697C424.803 33.2697 427.775 33.9835 430.311 35.411C432.846 36.8386 434.806 38.9266 436.191 41.6752C437.598 44.4238 438.301 47.7796 438.301 51.7427V82.9998H426.731V53.5325C426.731 50.2299 425.879 47.6624 424.174 45.8301C422.491 43.9764 420.126 43.0495 417.079 43.0495C415.034 43.0495 413.201 43.497 411.582 44.3918C409.984 45.2654 408.727 46.5332 407.811 48.1951C406.916 49.857 406.468 51.8705 406.468 54.2356ZM471.507 83.9586C466.713 83.9586 462.559 82.9039 459.043 80.7945C455.527 78.6852 452.8 75.7342 450.861 71.9416C448.943 68.1489 447.985 63.7171 447.985 58.6461C447.985 53.5751 448.943 49.1326 450.861 45.3187C452.8 41.5048 455.527 38.5431 459.043 36.4337C462.559 34.3244 466.713 33.2697 471.507 33.2697C476.301 33.2697 480.456 34.3244 483.972 36.4337C487.488 38.5431 490.204 41.5048 492.122 45.3187C494.061 49.1326 495.03 53.5751 495.03 58.6461C495.03 63.7171 494.061 68.1489 492.122 71.9416C490.204 75.7342 487.488 78.6852 483.972 80.7945C480.456 82.9039 476.301 83.9586 471.507 83.9586ZM471.571 74.6901C474.171 74.6901 476.344 73.9764 478.091 72.5488C479.838 71.0999 481.138 69.161 481.99 66.732C482.864 64.3031 483.301 61.5971 483.301 58.6141C483.301 55.6099 482.864 52.8933 481.99 50.4643C481.138 48.014 479.838 46.0644 478.091 44.6156C476.344 43.1667 474.171 42.4423 471.571 42.4423C468.908 42.4423 466.692 43.1667 464.924 44.6156C463.176 46.0644 461.866 48.014 460.992 50.4643C460.14 52.8933 459.714 55.6099 459.714 58.6141C459.714 61.5971 460.14 64.3031 460.992 66.732C461.866 69.161 463.176 71.0999 464.924 72.5488C466.692 73.9764 468.908 74.6901 471.571 74.6901ZM516.42 54.2356V82.9998H504.85V33.9089H515.908V42.2505H516.483C517.613 39.5019 519.413 37.318 521.885 35.6987C524.378 34.0793 527.456 33.2697 531.121 33.2697C534.509 33.2697 537.46 33.9941 539.974 35.443C542.51 36.8918 544.47 38.9906 545.855 41.7391C547.261 44.4877 547.954 47.8222 547.932 51.7427V82.9998H536.363V53.5325C536.363 50.2512 535.51 47.6837 533.806 45.8301C532.123 43.9764 529.79 43.0495 526.807 43.0495C524.782 43.0495 522.982 43.497 521.405 44.3918C519.85 45.2654 518.625 46.5332 517.73 48.1951C516.856 49.857 516.42 51.8705 516.42 54.2356Z" fill="#1F1E1B"/>
<path d="M95.62 3.91593C96.7613 0.799056 99.8775 -1.03414 102.726 0.624305C105.309 2.17437 106.018 5.53287 106.368 8.35806C107.416 19.6381 107.624 31.2619 107.846 42.645C113.831 42.7757 119.984 42.9482 125.845 43.125C132.37 43.5413 139.154 43.3582 145.571 44.7994C152.896 46.89 151.663 54.3375 144.471 55.5207C134.821 56.9282 126.703 56.8119 116.661 57.1701C113.696 57.2457 110.767 57.3294 107.853 57.3944C107.723 63.3632 107.551 69.4994 107.375 75.3451C106.959 81.8701 107.142 88.6538 105.701 95.0707C103.61 102.396 96.1625 101.163 94.9794 93.9707C93.5713 84.3207 93.6875 76.2032 93.3294 66.1607C93.255 63.2132 93.1712 60.3007 93.1062 57.4044C92.5581 57.3869 92.0094 57.3676 91.4594 57.3457C84.6594 57.1626 78.1756 57.0707 71.4169 56.7538C65.8 56.2794 59.8244 56.6457 54.4163 54.8794C51.2994 53.7382 49.4662 50.6225 51.1244 47.7732C52.6744 45.1907 56.0331 44.4825 58.8581 44.1325C70.1213 43.0857 81.7269 42.8757 93.0937 42.6544C93.1112 42.09 93.1312 41.525 93.1544 40.9594C93.3375 34.1594 93.4294 27.675 93.7456 20.9169C94.2206 15.3 93.8544 9.32444 95.62 3.91593ZM63.9081 15.115C69.7 14.84 75.5 14.6069 75.5 20.0888C75.5 25.0713 69.8331 25.9044 69.8331 25.9044C58.2 27.5706 39.0475 30.8956 29.1175 35.0444C14.1856 41.285 12.9554 47.4919 12.9554 50C12.9554 52.5075 14.1856 58.7151 29.1175 64.9557C39.0475 69.1044 58.2 72.4376 69.8331 74.0957C69.8331 74.0957 75.5 74.9282 75.5 79.9107C75.5 85.3932 69.6913 85.1595 63.9081 84.8845C29.1088 83.2351 0.500188 68.8963 0.5 49.7919C0.5 30.6875 29.1088 16.7819 63.9081 15.115ZM125.5 20.0888C125.5 14.6069 131.3 14.84 137.092 15.115C171.891 16.765 200.5 30.67 200.5 49.7744V49.7919C200.5 68.8963 171.891 83.2351 137.092 84.8845C131.309 85.1595 125.5 85.3932 125.5 79.9107C125.5 74.9282 131.167 74.0957 131.167 74.0957C142.8 72.4376 161.953 69.1044 171.883 64.9557C186.814 58.7151 188.044 52.5075 188.044 50C188.044 47.4919 186.814 41.285 171.883 35.0444C161.953 30.8956 142.8 27.5706 131.167 25.9044C131.167 25.9044 125.5 25.0713 125.5 20.0888Z" fill="#1F1E1B"/>
<path d="M698.609 33H603.391C589.368 33 578 44.4167 578 58.5C578 72.5833 589.368 84 603.391 84H698.609C712.632 84 724 72.5833 724 58.5C724 44.4167 712.632 33 698.609 33Z" fill="#0071E3"/>
<path d="M699.642 67.7221H696.453V52.9331H691.031V50.3087H705V52.9331H699.642V67.7221ZM689.245 65.0978V67.7221H677.604V50.2779H689.245V52.9022H680.825V57.5952H688.799V60.0652H680.825V65.036H689.245V65.0978ZM662.615 67.7221H659.521V50.2779H662.296L671.226 62.4734H671.321V50.2779H674.415V67.6913H671.672L662.742 55.4648H662.615V67.6913V67.7221ZM651.931 67.7221H648.741V52.9331H643.351V50.3087H657.32V52.9331H651.931V67.7221ZM627.852 62.8439H630.913C631.168 64.4494 632.795 65.4065 635.027 65.4065C637.196 65.4065 638.695 64.3877 638.695 62.9365C638.695 61.7015 637.802 60.8988 635.474 60.4357L633.528 60.0343C629.925 59.3242 628.234 57.6878 628.234 55.1561C628.234 52.0686 631.009 50 634.932 50C638.886 50 641.534 52.0995 641.629 55.2487H638.536C638.376 53.5815 636.941 52.5935 634.9 52.5935C632.891 52.5935 631.487 53.5197 631.487 54.9708C631.487 56.1441 632.38 56.916 634.613 57.3791L636.558 57.7496C640.353 58.5214 641.948 60.0034 641.948 62.566C641.948 65.9005 639.237 68 634.932 68C630.754 68 627.979 66.024 627.852 62.8439ZM625.81 65.0978V67.7221H614.17V50.2779H625.81V52.9022H617.391V57.5952H625.364V60.0652H617.391V65.036H625.81V65.0978ZM606.579 67.7221H603.39V52.9331H598V50.3087H611.969V52.9331H606.579V67.7221Z" fill="#FEFEFE"/>
</svg>
