<svg width="30" height="29" viewBox="0 0 30 29" fill="none" xmlns="http://www.w3.org/2000/svg">
<g filter="url(#filter0_d_3081_1000)">
<path d="M23.6476 2.67419L16.1523 8.24105L17.5384 4.95668L23.6476 2.67419Z" fill="#E2761B" stroke="#E2761B" stroke-linecap="round" stroke-linejoin="round"/>
<path d="M6.34473 2.67419L13.7798 8.29378L12.4615 4.95668L6.34473 2.67419Z" fill="#E4761B" stroke="#E4761B" stroke-linecap="round" stroke-linejoin="round"/>
<path d="M20.9513 15.5781L18.9551 18.6365L23.2263 19.8116L24.4541 15.6459L20.9513 15.5781Z" fill="#E4761B" stroke="#E4761B" stroke-linecap="round" stroke-linejoin="round"/>
<path d="M5.55371 15.6459L6.77405 19.8116L11.0452 18.6365L9.049 15.5781L5.55371 15.6459Z" fill="#E4761B" stroke="#E4761B" stroke-linecap="round" stroke-linejoin="round"/>
<path d="M10.804 10.4105L9.61377 12.2109L13.8548 12.3992L13.7042 7.8418L10.804 10.4105Z" fill="#E4761B" stroke="#E4761B" stroke-linecap="round" stroke-linejoin="round"/>
<path d="M19.1881 10.4105L16.2503 7.78906L16.1523 12.3992L20.3859 12.2109L19.1881 10.4105Z" fill="#E4761B" stroke="#E4761B" stroke-linecap="round" stroke-linejoin="round"/>
<path d="M11.0454 18.6365L13.5915 17.3936L11.3919 15.6761L11.0454 18.6365Z" fill="#E4761B" stroke="#E4761B" stroke-linecap="round" stroke-linejoin="round"/>
<path d="M16.4014 17.3936L18.955 18.6365L18.601 15.6761L16.4014 17.3936Z" fill="#E4761B" stroke="#E4761B" stroke-linecap="round" stroke-linejoin="round"/>
<path d="M18.955 18.6366L16.4014 17.3936L16.6048 19.0584L16.5822 19.759L18.955 18.6366Z" fill="#D7C1B3" stroke="#D7C1B3" stroke-linecap="round" stroke-linejoin="round"/>
<path d="M11.0454 18.6366L13.4183 19.759L13.4032 19.0584L13.5915 17.3936L11.0454 18.6366Z" fill="#D7C1B3" stroke="#D7C1B3" stroke-linecap="round" stroke-linejoin="round"/>
<path d="M13.4558 14.5763L11.3315 13.9511L12.8306 13.2656L13.4558 14.5763Z" fill="#233447" stroke="#233447" stroke-linecap="round" stroke-linejoin="round"/>
<path d="M16.5366 14.5763L17.1619 13.2656L18.6684 13.9511L16.5366 14.5763Z" fill="#233447" stroke="#233447" stroke-linecap="round" stroke-linejoin="round"/>
<path d="M11.0451 18.6366L11.4066 15.5782L9.04883 15.646L11.0451 18.6366Z" fill="#CD6116" stroke="#CD6116" stroke-linecap="round" stroke-linejoin="round"/>
<path d="M18.5933 15.5782L18.9548 18.6366L20.9511 15.646L18.5933 15.5782Z" fill="#CD6116" stroke="#CD6116" stroke-linecap="round" stroke-linejoin="round"/>
<path d="M20.3859 12.2109L16.1523 12.3993L16.5441 14.5763L17.1693 13.2656L18.6759 13.951L20.3859 12.2109Z" fill="#CD6116" stroke="#CD6116" stroke-linecap="round" stroke-linejoin="round"/>
<path d="M11.3313 13.951L12.8379 13.2656L13.4556 14.5763L13.8548 12.3993L9.61377 12.2109L11.3313 13.951Z" fill="#CD6116" stroke="#CD6116" stroke-linecap="round" stroke-linejoin="round"/>
<path d="M9.61377 12.2109L11.3915 15.6761L11.3313 13.951L9.61377 12.2109Z" fill="#E4751F" stroke="#E4751F" stroke-linecap="round" stroke-linejoin="round"/>
<path d="M18.6759 13.951L18.6006 15.6761L20.3859 12.2109L18.6759 13.951Z" fill="#E4751F" stroke="#E4751F" stroke-linecap="round" stroke-linejoin="round"/>
<path d="M13.8548 12.3992L13.4556 14.5763L13.9527 17.145L14.0657 13.7627L13.8548 12.3992Z" fill="#E4751F" stroke="#E4751F" stroke-linecap="round" stroke-linejoin="round"/>
<path d="M16.1526 12.3992L15.9492 13.7552L16.0396 17.145L16.5443 14.5763L16.1526 12.3992Z" fill="#E4751F" stroke="#E4751F" stroke-linecap="round" stroke-linejoin="round"/>
<path d="M16.5443 14.5763L16.0396 17.145L16.4011 17.3936L18.6008 15.6761L18.6761 13.951L16.5443 14.5763Z" fill="#F6851B" stroke="#F6851B" stroke-linecap="round" stroke-linejoin="round"/>
<path d="M11.3315 13.951L11.3918 15.6761L13.5914 17.3936L13.953 17.145L13.4558 14.5763L11.3315 13.951Z" fill="#F6851B" stroke="#F6851B" stroke-linecap="round" stroke-linejoin="round"/>
<path d="M16.5821 19.7589L16.6047 19.0584L16.4164 18.8927H13.5765L13.4032 19.0584L13.4183 19.7589L11.0454 18.6365L11.874 19.3145L13.5539 20.4821H16.439L18.1264 19.3145L18.955 18.6365L16.5821 19.7589Z" fill="#C0AD9E" stroke="#C0AD9E" stroke-linecap="round" stroke-linejoin="round"/>
<path d="M16.4009 17.3936L16.0394 17.145H13.9527L13.5912 17.3936L13.4028 19.0584L13.5761 18.8927H16.416L16.6043 19.0584L16.4009 17.3936Z" fill="#161616" stroke="#161616" stroke-linecap="round" stroke-linejoin="round"/>
<path d="M23.9645 8.60263L24.6048 5.52919L23.6481 2.67419L16.4014 8.05273L19.1886 10.4105L23.1283 11.5631L24.0021 10.5461L23.6255 10.2749L24.2281 9.72504L23.7611 9.36346L24.3637 8.90395L23.9645 8.60263Z" fill="#763D16" stroke="#763D16" stroke-linecap="round" stroke-linejoin="round"/>
<path d="M5.39551 5.52919L6.03581 8.60263L5.62903 8.90395L6.23167 9.36346L5.77216 9.72504L6.37479 10.2749L5.99814 10.5461L6.86443 11.5631L10.8042 10.4105L13.5914 8.05273L6.34466 2.67419L5.39551 5.52919Z" fill="#763D16" stroke="#763D16" stroke-linecap="round" stroke-linejoin="round"/>
<path d="M23.1279 11.5631L19.1882 10.4105L20.3859 12.2109L18.6006 15.6761L20.9509 15.6459H24.4537L23.1279 11.5631Z" fill="#F6851B" stroke="#F6851B" stroke-linecap="round" stroke-linejoin="round"/>
<path d="M10.8042 10.4105L6.86445 11.5631L5.55371 15.6459H9.049L11.3918 15.6761L9.61397 12.2109L10.8042 10.4105Z" fill="#F6851B" stroke="#F6851B" stroke-linecap="round" stroke-linejoin="round"/>
<path d="M16.1526 12.3992L16.4012 8.05271L17.5462 4.95667H12.4614L13.5914 8.05271L13.855 12.3992L13.9454 13.7702L13.953 17.145H16.0396L16.0546 13.7702L16.1526 12.3992Z" fill="#F6851B" stroke="#F6851B" stroke-linecap="round" stroke-linejoin="round"/>
</g>
<defs>
<filter id="filter0_d_3081_1000" x="-1" y="0" width="32" height="32" filterUnits="userSpaceOnUse" color-interpolation-filters="sRGB">
<feFlood flood-opacity="0" result="BackgroundImageFix"/>
<feColorMatrix in="SourceAlpha" type="matrix" values="0 0 0 0 0 0 0 0 0 0 0 0 0 0 0 0 0 0 127 0" result="hardAlpha"/>
<feOffset dy="4"/>
<feGaussianBlur stdDeviation="2"/>
<feComposite in2="hardAlpha" operator="out"/>
<feColorMatrix type="matrix" values="0 0 0 0 0 0 0 0 0 0 0 0 0 0 0 0 0 0 0.25 0"/>
<feBlend mode="normal" in2="BackgroundImageFix" result="effect1_dropShadow_3081_1000"/>
<feBlend mode="normal" in="SourceGraphic" in2="effect1_dropShadow_3081_1000" result="shape"/>
</filter>
</defs>
</svg>
