<svg width="20" height="20" viewBox="0 0 20 20" fill="none" xmlns="http://www.w3.org/2000/svg">
<path d="M4.49996 14.5209V15.5V4.50002V14.5209ZM4.75642 16.5834C4.3867 16.5834 4.07093 16.4525 3.80913 16.1909C3.54746 15.929 3.41663 15.6133 3.41663 15.2436V4.75648C3.41663 4.38676 3.54746 4.07099 3.80913 3.80919C4.07093 3.54752 4.3867 3.41669 4.75642 3.41669H15.2435C15.6132 3.41669 15.929 3.54752 16.1908 3.80919C16.4525 4.07099 16.5833 4.38676 16.5833 4.75648V6.98252H15.5V4.75648C15.5 4.68162 15.4759 4.62016 15.4279 4.5721C15.3798 4.52405 15.3184 4.50002 15.2435 4.50002H4.75642C4.68156 4.50002 4.6201 4.52405 4.57204 4.5721C4.52399 4.62016 4.49996 4.68162 4.49996 4.75648V15.2436C4.49996 15.3184 4.52399 15.3799 4.57204 15.4279C4.6201 15.476 4.68156 15.5 4.75642 15.5H15.2435C15.3184 15.5 15.3798 15.476 15.4279 15.4279C15.4759 15.3799 15.5 15.3184 15.5 15.2436V12.9967H16.5833V15.2436C16.5833 15.6133 16.4525 15.929 16.1908 16.1909C15.929 16.4525 15.6132 16.5834 15.2435 16.5834H4.75642ZM10.7564 13.5834C10.3867 13.5834 10.0709 13.4525 9.80913 13.1909C9.54746 12.929 9.41663 12.6133 9.41663 12.2436V7.75648C9.41663 7.38676 9.54746 7.07099 9.80913 6.80919C10.0709 6.54752 10.3867 6.41669 10.7564 6.41669H16.2435C16.6132 6.41669 16.929 6.54752 17.1908 6.80919C17.4525 7.07099 17.5833 7.38676 17.5833 7.75648V12.2436C17.5833 12.6133 17.4525 12.929 17.1908 13.1909C16.929 13.4525 16.6132 13.5834 16.2435 13.5834H10.7564ZM16.2435 12.5C16.3184 12.5 16.3798 12.476 16.4279 12.4279C16.4759 12.3799 16.5 12.3184 16.5 12.2436V7.75648C16.5 7.68162 16.4759 7.62016 16.4279 7.5721C16.3798 7.52405 16.3184 7.50002 16.2435 7.50002H10.7564C10.6816 7.50002 10.6201 7.52405 10.572 7.5721C10.524 7.62016 10.5 7.68162 10.5 7.75648V12.2436C10.5 12.3184 10.524 12.3799 10.572 12.4279C10.6201 12.476 10.6816 12.5 10.7564 12.5H16.2435ZM13.5 11.25C13.8472 11.25 14.1423 11.1285 14.3854 10.8854C14.6284 10.6424 14.75 10.3472 14.75 10C14.75 9.6528 14.6284 9.35766 14.3854 9.1146C14.1423 8.87155 13.8472 8.75002 13.5 8.75002C13.1527 8.75002 12.8576 8.87155 12.6145 9.1146C12.3715 9.35766 12.25 9.6528 12.25 10C12.25 10.3472 12.3715 10.6424 12.6145 10.8854C12.8576 11.1285 13.1527 11.25 13.5 11.25Z" fill="white"/>
</svg>
