<svg width="234" height="48" viewBox="0 0 234 48" fill="none" xmlns="http://www.w3.org/2000/svg">
<path d="M0.429504 20.2511L20.6806 0V10.1255H40.9317L20.6806 25.3139V40.5022L0.429504 20.2511Z" fill="white"/>
<path d="M71.3082 20.2511L51.0572 40.5022V30.3766H30.8061L51.0572 15.1883V0L71.3082 20.2511Z" fill="white"/>
<path d="M110.668 38.0322V2.59116H119.234V17.5775H119.701L131.417 2.59116H141.506L128.942 18.4081L141.731 38.0322H131.486L122.66 24.1015L119.234 28.4278V38.0322H110.668Z" fill="white"/>
<path d="M80.301 38.0322V33.1521L97.5197 9.54786H80.3183V2.59117H108.353V7.47124L91.1341 31.0755H108.335V38.0322H80.301Z" fill="white"/>
<path d="M223.43 38.5859C221.053 38.5859 218.982 37.9918 217.217 36.8035C215.464 35.6152 214.102 33.9885 213.133 31.9234C212.164 29.8583 211.679 27.5048 211.679 24.8629C211.679 22.1979 212.17 19.8271 213.15 17.7505C214.143 15.6739 215.515 14.0472 217.269 12.8704C219.023 11.6821 221.059 11.088 223.378 11.088C225.154 11.088 226.764 11.4341 228.206 12.1263C229.648 12.807 230.836 13.7703 231.771 15.0163C232.717 16.2507 233.311 17.6928 233.553 19.3426H230.438C230.115 17.8428 229.337 16.5622 228.102 15.5008C226.879 14.4279 225.322 13.8914 223.43 13.8914C221.734 13.8914 220.234 14.3529 218.93 15.2758C217.627 16.1872 216.606 17.4621 215.867 19.1003C215.14 20.727 214.777 22.6132 214.777 24.7591C214.777 26.9165 215.135 28.8258 215.85 30.4871C216.565 32.1369 217.569 33.429 218.861 34.3635C220.165 35.2979 221.688 35.7652 223.43 35.7652C224.606 35.7652 225.679 35.546 226.648 35.1076C227.629 34.6577 228.448 34.0231 229.106 33.204C229.775 32.3849 230.225 31.41 230.456 30.2794H233.571C233.34 31.8831 232.769 33.3136 231.857 34.5711C230.957 35.8171 229.786 36.7977 228.344 37.513C226.914 38.2283 225.276 38.5859 223.43 38.5859Z" fill="white"/>
<path d="M191.318 21.4192V38.0322H188.237V11.4514H191.231V15.622H191.508C192.131 14.2606 193.1 13.1704 194.415 12.3513C195.742 11.5206 197.38 11.1053 199.33 11.1053C201.118 11.1053 202.687 11.4802 204.037 12.2301C205.398 12.9685 206.454 14.0587 207.204 15.5008C207.965 16.9429 208.346 18.7138 208.346 20.8135V38.0322H205.266V21.0039C205.266 18.8234 204.654 17.0987 203.431 15.8296C202.22 14.5606 200.593 13.926 198.551 13.926C197.155 13.926 195.915 14.226 194.831 14.8259C193.746 15.4258 192.887 16.2911 192.252 17.4217C191.629 18.5408 191.318 19.8733 191.318 21.4192Z" fill="white"/>
<path d="M167.192 48C166.581 48 166.01 47.9423 165.479 47.8269C164.948 47.7116 164.527 47.5847 164.216 47.4462L165.046 44.7293C166.096 45.0523 167.031 45.1677 167.85 45.0754C168.669 44.9946 169.396 44.6255 170.03 43.9679C170.665 43.3218 171.23 42.3296 171.726 40.9914L172.695 38.2918L162.918 11.4514H166.258L174.149 33.9655H174.391L182.282 11.4514H185.622L174.374 42.2373C173.901 43.5179 173.318 44.5851 172.626 45.4388C171.934 46.3041 171.132 46.9444 170.221 47.3597C169.321 47.7865 168.311 48 167.192 48Z" fill="white"/>
<path d="M161.332 17.2833L158.511 18.0793C158.234 17.2833 157.842 16.5622 157.334 15.9162C156.827 15.2701 156.163 14.7567 155.344 14.376C154.537 13.9953 153.533 13.8049 152.333 13.8049C150.533 13.8049 149.057 14.2318 147.903 15.0855C146.749 15.9392 146.173 17.041 146.173 18.3908C146.173 19.5329 146.565 20.4617 147.349 21.1769C148.145 21.8807 149.368 22.4402 151.018 22.8555L155.033 23.8419C157.259 24.3842 158.926 25.2437 160.034 26.4204C161.153 27.5972 161.713 29.0739 161.713 30.8505C161.713 32.3503 161.297 33.6828 160.467 34.848C159.636 36.0133 158.477 36.9304 156.988 37.5996C155.512 38.2572 153.798 38.586 151.849 38.586C149.253 38.586 147.113 38.0034 145.428 36.8381C143.744 35.6614 142.665 33.9655 142.192 31.7504L145.152 31.0236C145.532 32.6041 146.276 33.7982 147.384 34.6058C148.503 35.4133 149.974 35.8171 151.797 35.8171C153.839 35.8171 155.471 35.3614 156.694 34.45C157.917 33.5271 158.528 32.3734 158.528 30.989C158.528 29.9161 158.171 29.0162 157.456 28.2894C156.74 27.551 155.656 27.0088 154.202 26.6627L149.859 25.6244C147.551 25.0706 145.844 24.1938 144.736 22.994C143.629 21.7942 143.075 20.3059 143.075 18.5292C143.075 17.0641 143.473 15.7777 144.269 14.6702C145.065 13.5511 146.161 12.6743 147.557 12.0398C148.953 11.4053 150.545 11.088 152.333 11.088C154.767 11.088 156.711 11.6418 158.165 12.7493C159.63 13.8453 160.686 15.3566 161.332 17.2833Z" fill="white"/>
</svg>
