<?xml version="1.0" encoding="utf-8"?>
<!-- Generator: Adobe Illustrator 27.7.0, SVG Export Plug-In . SVG Version: 6.00 Build 0)  -->
<svg version="1.1" id="Layer_1" xmlns="http://www.w3.org/2000/svg" xmlns:xlink="http://www.w3.org/1999/xlink" x="0px" y="0px"
	 viewBox="0 0 48 48" style="enable-background:new 0 0 48 48;" xml:space="preserve">
<style type="text/css">
	.st0{fill-rule:evenodd;clip-rule:evenodd;fill:#F3F3FA;}
	.st1{fill:#828384;}
	.st2{fill:#2F3030;}
	.st3{fill:#343535;}
	.st4{fill:#131313;}
</style>
<path class="st0" d="M0,24C0,10.7,10.7,0,24,0s24,10.7,24,24S37.3,48,24,48S0,37.3,0,24z"/>
<path class="st1" d="M12.5,24L24,6l11.5,18L24,30.5L12.5,24z"/>
<path class="st2" d="M24,6l11.5,18L24,30.5V6z"/>
<path class="st1" d="M12.5,26.5L24,33l11.5-6.5L24,42L12.5,26.5z"/>
<path class="st3" d="M24,33l11.5-6.5L24,42V33z M12.5,24L24,19.1L35.4,24L24,30.5L12.5,24z"/>
<path class="st4" d="M24,19.1L35.4,24L24,30.5V19.1z"/>
</svg>
