<?xml version="1.0" encoding="utf-8"?>
<!-- Generator: Adobe Illustrator 28.0.0, SVG Export Plug-In . SVG Version: 6.00 Build 0)  -->
<svg version="1.1" id="Treasure_x5F_Logomark" xmlns="http://www.w3.org/2000/svg"
	xmlns:xlink="http://www.w3.org/1999/xlink"
	x="0px" y="0px" viewBox="0 0 128 128" style="enable-background:new 0 0 128 128;"
	xml:space="preserve">
<style type="text/css">
	.st0{fill:#DC2626;}
	.st1{fill:#FFFDF7;}
	.st2{fill:none;}
</style>
<g>
	<g>
		<path class="st0" d="M13.52,39.9v48.22c0,7.98,4.22,15.35,11.05,19.32l31.47,18.35c5.06,2.95,11.27,2.95,16.32,0l31.47-18.35
			c6.82-3.99,11.05-11.36,11.05-19.32V39.9c0-7.98-4.22-15.35-11.05-19.31L72.36,2.21c-5.06-2.95-11.27-2.95-16.32,0L24.56,20.56
			C17.74,24.55,13.52,31.92,13.52,39.9z"/>
		<path class="st1" d="M102.62,62.73l-11.56-3.97c-4.25-1.46-7.41-5.08-8.3-9.52L77.88,24.9c-0.12-0.62-0.66-1.07-1.3-1.07
			c-0.64,0-1.18,0.45-1.3,1.07l-4.88,24.35c-0.88,4.44-4.05,8.06-8.3,9.52l-11.56,3.97c-0.54,0.17-0.88,0.69-0.88,1.26
			c0,0.57,0.37,1.07,0.88,1.26l11.56,3.97c4.25,1.46,7.41,5.08,8.3,9.52l4.88,24.35c0.12,0.62,0.66,1.07,1.3,1.07
			c0.64,0,1.18-0.45,1.3-1.07l4.88-24.35c0.88-4.44,4.05-8.06,8.3-9.52l11.56-3.97c0.54-0.17,0.88-0.69,0.88-1.26
			C103.5,63.43,103.14,62.93,102.62,62.73z"/>
		<path class="st1" d="M40.42,40.4l4.08,1.39c1.5,0.52,2.63,1.79,2.92,3.37l1.72,8.6c0.05,0.22,0.24,0.37,0.47,0.37
			s0.42-0.15,0.47-0.37l1.72-8.6c0.32-1.56,1.42-2.85,2.94-3.37l4.08-1.39c0.2-0.07,0.32-0.25,0.32-0.45c0-0.2-0.12-0.37-0.32-0.45
			l-4.08-1.39c-1.5-0.52-2.63-1.79-2.94-3.37l-1.72-8.6c-0.05-0.22-0.25-0.37-0.47-0.37s-0.42,0.15-0.47,0.37l-1.72,8.6
			c-0.32,1.56-1.42,2.85-2.92,3.37l-4.08,1.39c-0.2,0.07-0.32,0.25-0.32,0.45C40.1,40.15,40.23,40.32,40.42,40.4z"/>
		<path class="st1" d="M49.95,82.64l-5.48-1.86c-2.01-0.69-3.51-2.4-3.93-4.51l-2.31-11.53c-0.05-0.3-0.32-0.5-0.61-0.5
			s-0.56,0.2-0.61,0.5L34.7,76.27c-0.42,2.11-1.92,3.82-3.93,4.51l-5.47,1.86c-0.25,0.08-0.42,0.32-0.42,0.6s0.17,0.52,0.42,0.6
			l5.47,1.86c2.01,0.69,3.51,2.4,3.93,4.51l2.31,11.53c0.05,0.3,0.32,0.5,0.61,0.5s0.54-0.22,0.61-0.5l2.31-11.53
			c0.42-2.11,1.91-3.82,3.93-4.51l5.48-1.86c0.24-0.08,0.42-0.32,0.42-0.6S50.19,82.72,49.95,82.64z"/>
	</g>
	<rect class="st2" width="128" height="128"/>
</g>
</svg>