<svg width="320" height="160" viewBox="0 0 320 160" fill="none" xmlns="http://www.w3.org/2000/svg">
<path d="M152.192 6.26549C154.018 1.27849 159.004 -1.65462 163.562 0.998884C167.695 3.47898 168.828 8.85258 169.388 13.3729C171.066 31.421 171.399 50.019 171.754 68.232C181.329 68.441 191.174 68.717 200.552 69C210.992 69.666 221.846 69.373 232.113 71.679C243.834 75.024 241.861 86.94 230.354 88.833C214.913 91.085 201.925 90.899 185.857 91.472C181.113 91.593 176.427 91.727 171.765 91.831C171.557 101.381 171.282 111.199 171 120.552C170.334 130.992 170.627 141.846 168.321 152.113C164.976 163.834 153.06 161.861 151.167 150.353C148.914 134.913 149.1 121.925 148.527 105.857C148.408 101.141 148.274 96.481 148.17 91.847C147.293 91.819 146.415 91.788 145.535 91.753C134.655 91.46 124.281 91.313 113.467 90.806C104.48 90.047 94.919 90.633 86.266 87.807C81.279 85.981 78.346 80.996 80.999 76.437C83.479 72.305 88.853 71.172 93.373 70.612C111.394 68.937 129.963 68.601 148.15 68.247C148.178 67.344 148.21 66.44 148.247 65.535C148.54 54.655 148.687 44.28 149.193 33.467C149.953 24.48 149.367 14.9191 152.192 6.26549ZM101.453 24.184C110.72 23.744 120 23.371 120 32.142C120 40.114 110.933 41.447 110.933 41.447C92.32 44.113 61.676 49.433 45.788 56.071C21.897 66.056 19.9287 75.987 19.9287 80C19.9287 84.012 21.897 93.944 45.788 103.929C61.676 110.567 92.32 115.9 110.933 118.553C110.933 118.553 120 119.885 120 127.857C120 136.629 110.706 136.255 101.453 135.815C45.774 133.176 0.0003 110.234 0 79.667C0 49.1 45.774 26.851 101.453 24.184ZM200 32.142C200 23.371 209.28 23.744 218.547 24.184C274.226 26.824 320 49.072 320 79.639V79.667C320 110.234 274.226 133.176 218.547 135.815C209.294 136.255 200 136.629 200 127.857C200 119.885 209.067 118.553 209.067 118.553C227.68 115.9 258.324 110.567 274.212 103.929C298.103 93.944 300.071 84.012 300.071 80C300.071 75.987 298.103 66.056 274.212 56.071C258.324 49.433 227.68 44.113 209.067 41.447C209.067 41.447 200 40.114 200 32.142Z" fill="#1F1E1B"/>
</svg>
