<svg xmlns="http://www.w3.org/2000/svg" width="64" height="32"><path fill="#1D1D1F" fill-rule="nonzero" d="m32 .7.15.02c.2.01.36.07.51.17.18.13.3.31.37.51.1.28.15.63.18 1l.03.7.05 1.1.04 1.75.04 2.17.03 3.08.02 3.38 3.37.01 1.89.02 2.3.03 2.14.05 1.5.05.47.03.47.02c.38.03.73.07 1 .17.2.08.38.2.51.38s.18.4.18.66-.05.48-.18.67c-.13.18-.31.3-.51.37-.27.1-.62.15-1 .17l-.47.03-1.02.04-.95.03-1.1.03-1.6.03-2.36.03-3.26.02h-1.38l-.01 3.39-.03 2.49-.05 2.75-.04 1.75-.05 1.1-.02.46c-.03.47-.06.9-.19 1.24-.07.2-.19.38-.37.5-.15.1-.32.17-.51.18l-.15.01h-.15c-.2-.02-.37-.08-.51-.18-.19-.13-.3-.31-.38-.51a3.08 3.08 0 0 1-.15-.78l-.03-.46-.02-.24.26-.01h-.26l-.03-.73-.04-1.23-.03-1.1-.03-1.6-.03-2.37-.02-3.27v-1.38l-2.72-.01-2.54-.03-2.3-.03-2.15-.05-1.49-.05-.47-.02-.24-.01a4.4 4.4 0 0 1-1.24-.19c-.2-.08-.38-.2-.5-.37-.1-.15-.16-.32-.18-.52v-.3c.02-.2.07-.36.18-.51.12-.18.3-.3.5-.38.28-.1.63-.14 1-.17l.48-.02 1.01-.05.95-.03 1.1-.03 1.6-.03 2.36-.03 3.27-.02h1.37l.02-3.38.03-2.5.04-2.75.05-1.75.04-1.1.03-.46.03-.46c.03-.3.07-.56.15-.78.08-.2.2-.38.38-.5.14-.1.31-.17.5-.18L32 .7Zm-3.9 4.83h.33c.44.02.77.14 1 .33.23.2.34.44.39.66l.02.1v.16c.01.24-.06.48-.19.68l-.09.12-.11.12c-.32.3-.72.37-1.01.39l-.24.01h-.02l-1.28.05-1.23.06-1.19.07-1.15.09-1.1.1-1.08.1-1.03.12-1 .13-.48.06-.95.15-.9.14-.44.08-.86.16-.82.17-.4.09-.77.18-.38.09-.72.19-.7.19-.65.2-.64.2-.6.2-.57.21-.28.1-.53.22-.51.21-.48.22-.46.22-.43.21-.2.11-.4.22-.37.21-.35.22-.32.21-.3.21-.15.1c-1.05.93-1.44 1.67-1.56 2.18-.1.39-.04.67.01.87l.06.17.07.16c.4.84 1.4 1.69 2.92 2.5 1.6.84 3.7 1.61 6.1 2.26a64.37 64.37 0 0 0 14.8 2.13l.85.01h.48c.37 0 .83.06 1.19.36l.12.13c.2.23.32.53.32.84l-.01.16-.03.15c-.1.4-.33.64-.62.78-.26.13-.54.17-.78.19h-.4v-.02l-.33-.02-.77-.02a74.08 74.08 0 0 1-15.76-2.17l-.67-.18-.57-.17c-3.02-.9-5.36-1.96-7.01-3.2C1.2 19.46.25 18.03.04 16.42L0 16.05v-.08c.13-1.65 1.02-3.12 2.62-4.4l.29-.23C4.59 10.1 6.99 9 10.08 8.1l.55-.16.65-.18a74.97 74.97 0 0 1 15.96-2.2l.86-.02Zm7 .08c.29-.08.59-.09.8-.08l.45.03.77.02c5.72.18 11.8 1.05 16.43 2.35 3.3.93 5.83 2.05 7.58 3.37 1.66 1.24 2.62 2.67 2.83 4.28l.04.37v.08c-.13 1.65-1.02 3.12-2.62 4.4l-.29.23c-1.68 1.25-4.08 2.34-7.17 3.25l-.55.16-.65.18a74.97 74.97 0 0 1-15.96 2.2l-.81.02h-.45a1.56 1.56 0 0 1-.95-.35 1.15 1.15 0 0 1-.36-.62l-.03-.13v-.14c-.01-.25.06-.48.19-.69l.09-.12.11-.12c.32-.29.72-.36 1.01-.38l.26-.02 2.5-.1 1.2-.08 1.15-.08 1.1-.1 1.08-.1c.17-.03.35-.05.52-.06l1.02-.13.97-.13.48-.07.93-.14.88-.16.86-.16.41-.08.81-.17.77-.18.74-.19.7-.19.69-.2.64-.2.62-.2.3-.1.57-.2.55-.22.26-.1.51-.22.48-.21.46-.22.43-.22.2-.1.4-.22.19-.11.35-.22.34-.21.32-.21.28-.2c1.05-.93 1.45-1.67 1.57-2.19.1-.38.04-.67-.01-.86l-.06-.17-.07-.17c-.4-.84-1.4-1.68-2.92-2.49-1.6-.85-3.7-1.62-6.1-2.27a64.37 64.37 0 0 0-14.8-2.13H35.8c-.37-.01-.83-.06-1.19-.36l-.13-.13-.09-.12a1.26 1.26 0 0 1-.22-.73l.01-.15.04-.17c.05-.22.15-.4.3-.54.16-.17.37-.27.57-.33Z"/></svg>