<svg xmlns="http://www.w3.org/2000/svg" width="426" height="426"><g fill="none" fill-rule="nonzero"><rect width="426" height="426" fill="#FFF" rx="32"/><path fill="#000" d="m212.99 128.18.83.04a5.8 5.8 0 0 1 2.84.99 5.88 5.88 0 0 1 2.07 2.83c.58 1.52.81 3.46.96 5.58l.2 3.87.24 6.04.26 9.73.22 12.02.18 17.08.1 18.74 18.68.1 10.46.1 12.77.18 11.9.26 8.27.29 2.61.12 2.62.15c2.12.15 4.05.38 5.56.96a5.86 5.86 0 0 1 2.83 2.07 6.26 6.26 0 0 1 1.02 3.68c0 1.43-.31 2.67-1.02 3.68a5.87 5.87 0 0 1-2.83 2.08c-1.52.57-3.45.8-5.57.96l-2.6.15-5.63.23-5.26.17-6.1.15-8.85.17-13.13.17-18.1.13-7.63.02-.1 18.74-.14 13.82-.26 15.25-.26 9.74-.23 6.04-.13 2.59c-.15 2.62-.35 5.04-1.04 6.87a5.87 5.87 0 0 1-2.07 2.83 5.8 5.8 0 0 1-2.84.98l-.83.04-.84-.04a5.8 5.8 0 0 1-2.84-.99 5.88 5.88 0 0 1-2.07-2.83 17.1 17.1 0 0 1-.85-4.33l-.18-2.54-.07-1.32 1.42-.08-1.42.08-.18-4.08-.23-6.83-.15-6.12-.16-8.87-.18-13.16-.12-18.14-.03-7.65-15.07-.06-14.08-.13-12.77-.18-11.9-.27L143 220l-2.61-.12-1.33-.08c-2.61-.14-5.03-.34-6.85-1.03a5.86 5.86 0 0 1-2.83-2.08 5.83 5.83 0 0 1-.98-2.84l-.04-.84.04-.83c.1-1.08.42-2.04.99-2.85a5.88 5.88 0 0 1 2.82-2.07 20.3 20.3 0 0 1 5.57-.96l2.61-.15 5.62-.24 5.26-.17 6.11-.15 8.84-.16 13.13-.17 18.1-.13 7.64-.03.1-18.74.13-13.82.26-15.27.26-9.74.24-6.04.13-2.59.18-2.54c.15-1.63.4-3.11.85-4.33a5.87 5.87 0 0 1 2.07-2.83 5.8 5.8 0 0 1 2.84-.98l.84-.04Zm-21.61 26.72h1.8c2.45.11 4.27.78 5.57 1.86a6.43 6.43 0 0 1 2.14 3.65l.1.6.07.83a6.83 6.83 0 0 1-1.1 3.8l-.48.67-.65.68c-1.73 1.59-3.94 2-5.6 2.13l-1.31.08h-.13l-7.05.26a576 576 0 0 0-6.83.34l-6.6.4-6.37.47-6.17.54-5.94.6c-1.95.2-3.86.42-5.74.64l-5.53.7-2.7.38-5.22.78-5.03.83-2.45.43-4.74.9-4.55.93-2.21.48-4.28 1-2.08.5-4.01 1.04-3.85 1.07-3.67 1.1-3.5 1.11-3.35 1.14-3.2 1.16-1.53.58-2.96 1.18-2.8 1.19-2.67 1.2-2.52 1.2-2.39 1.2-1.14.6-2.19 1.2-2.06 1.2-1.93 1.2-1.81 1.17-1.7 1.17-.8.58c-5.78 5.14-7.95 9.2-8.64 12.07a8.94 8.94 0 0 0 .09 4.8l.31.93.4.93c2.2 4.66 7.77 9.36 16.16 13.8 8.87 4.71 20.57 8.99 33.81 12.6 25.02 6.83 55.36 11.24 82.15 11.8l4.7.06h2.66c2.04.03 4.59.3 6.58 2l.72.7a6.99 6.99 0 0 1 1.74 4.68l-.06.86-.16.85a6.36 6.36 0 0 1-3.43 4.35c-1.42.71-3.01.95-4.35 1l-.78.02h-1.42v-.09l-1.8-.11-4.3-.12c-30.24-.97-62.28-5.39-87.4-12.04l-3.7-1.02-3.2-.92c-16.74-4.96-29.75-10.88-38.89-17.74-9.19-6.9-14.54-14.83-15.71-23.76l-.2-2.05.04-.45c.66-9.15 5.61-17.3 14.5-24.4l1.6-1.25c9.32-6.97 22.61-12.98 39.75-18.04l3.07-.88 3.61-.99c25.51-6.76 57.96-11.25 88.5-12.23l4.8-.13Zm38.82.47a14.6 14.6 0 0 1 4.48-.44l2.43.14 4.28.11c31.75 1.03 65.5 5.85 91.12 13.06 18.29 5.16 32.37 11.38 42.08 18.67 9.19 6.9 14.54 14.84 15.71 23.77l.2 2.05-.04.45c-.66 9.15-5.61 17.3-14.5 24.4l-1.6 1.25c-9.32 6.97-22.61 12.98-39.75 18.04l-3.07.88-3.61.99c-25.51 6.76-57.95 11.25-88.5 12.23l-4.53.12v.03h-1.42l-1.04-.04c-2.34-.15-4.08-.84-5.3-1.92a6.39 6.39 0 0 1-2.02-3.48L225 265l-.06-.81a6.79 6.79 0 0 1 1.1-3.8l.48-.66.64-.68c1.74-1.59 3.95-2 5.6-2.13l1.45-.08c4.78-.15 9.4-.35 13.88-.6l6.6-.4 6.38-.48 6.16-.53 5.94-.6 2.9-.31 5.63-.68 5.43-.73c.89-.13 1.77-.25 2.64-.39l5.13-.8c1.68-.28 3.32-.56 4.94-.85l4.74-.9 2.3-.46 4.46-.95c1.46-.33 2.89-.66 4.28-1l4.1-1.02 3.94-1.05c1.28-.36 2.53-.72 3.75-1.09l3.6-1.1 3.42-1.13 1.65-.57 3.2-1.16 3.03-1.17 1.46-.6 2.8-1.18 2.67-1.2 2.52-1.2 2.39-1.2 1.14-.6 2.19-1.2 1.04-.6 2-1.2 1.87-1.19 1.75-1.17 1.56-1.1c5.86-5.18 8.02-9.25 8.72-12.13a8.94 8.94 0 0 0-.09-4.81l-.31-.92-.4-.93c-2.2-4.66-7.77-9.36-16.16-13.8-8.87-4.71-20.57-8.99-33.81-12.6-25.02-6.83-55.36-11.24-82.15-11.8l-4.7-.06h-2.66c-2.04-.03-4.59-.3-6.58-2l-.72-.7-.53-.68a6.97 6.97 0 0 1-1.2-4l.06-.87.17-.94a6.4 6.4 0 0 1 1.64-2.98c.94-.95 2.1-1.5 3.22-1.83Z"/></g></svg>