<svg width="20" height="20" viewBox="0 0 20 20" fill="none" xmlns="http://www.w3.org/2000/svg">
<rect x="2" y="2" width="16" height="16" rx="8" fill="#DC2626" style="fill:#DC2626;fill:color(display-p3 0.8627 0.1490 0.1490);fill-opacity:1;"/>
<path d="M14.7284 9.84433L13.2967 9.3594C12.7706 9.18205 12.3801 8.73591 12.2694 8.19279L11.6657 5.20836C11.649 5.13355 11.5826 5.07812 11.505 5.07812C11.4275 5.07812 11.361 5.13355 11.3444 5.20836L10.7407 8.19279C10.63 8.73591 10.2395 9.18205 9.71336 9.3594L8.28167 9.84433C8.2152 9.8665 8.1709 9.93023 8.1709 9.99951C8.1709 10.0688 8.2152 10.1325 8.28167 10.1547L9.71336 10.6396C10.2395 10.817 10.63 11.2631 10.7407 11.8062L11.3444 14.7879C11.361 14.8627 11.4275 14.9181 11.505 14.9181C11.5826 14.9181 11.649 14.8627 11.6657 14.7879L12.2694 11.8062C12.3801 11.2631 12.7706 10.817 13.2967 10.6396L14.7284 10.1547C14.7949 10.1325 14.8392 10.0688 14.8392 9.99951C14.8392 9.93023 14.7949 9.8665 14.7284 9.84433Z" fill="#FFFDF7" style="fill:#FFFDF7;fill:color(display-p3 1.0000 0.9922 0.9686);fill-opacity:1;"/>
<path d="M7.03584 7.10936L7.53984 7.28117C7.72538 7.3449 7.86384 7.50008 7.90261 7.69405L8.11584 8.74705C8.12138 8.77476 8.14353 8.79416 8.17122 8.79416C8.19892 8.79416 8.22107 8.77476 8.22661 8.74705L8.43984 7.69405C8.47861 7.50285 8.61707 7.3449 8.80261 7.28117L9.30661 7.10936C9.32876 7.10105 9.34538 7.07888 9.34538 7.05394C9.34538 7.029 9.32876 7.00683 9.30661 6.99852L8.80261 6.82671C8.61707 6.76298 8.47861 6.6078 8.43984 6.41383L8.22661 5.36083C8.22107 5.33312 8.19892 5.31372 8.17122 5.31372C8.14353 5.31372 8.12138 5.33312 8.11584 5.36083L7.90261 6.41383C7.86384 6.60503 7.72538 6.76298 7.53984 6.82671L7.03584 6.99852C7.01369 7.00683 6.99707 7.029 6.99707 7.05394C6.99707 7.07888 7.01369 7.10105 7.03584 7.10936Z" fill="#FFFDF7" style="fill:#FFFDF7;fill:color(display-p3 1.0000 0.9922 0.9686);fill-opacity:1;"/>
<path d="M8.21237 12.2829L7.53668 12.0529C7.28745 11.9698 7.10191 11.7592 7.05207 11.5015L6.76683 10.091C6.75852 10.055 6.72807 10.03 6.69207 10.03C6.65607 10.03 6.62283 10.055 6.61729 10.091L6.33206 11.5015C6.27945 11.7592 6.09391 11.9698 5.84745 12.0529L5.17176 12.2829C5.1413 12.294 5.11914 12.3217 5.11914 12.3549C5.11914 12.3882 5.1413 12.4187 5.17176 12.427L5.84745 12.657C6.09668 12.7401 6.28222 12.9507 6.33206 13.2084L6.61729 14.6189C6.6256 14.6549 6.65607 14.6799 6.69207 14.6799C6.72807 14.6799 6.76129 14.6549 6.76683 14.6189L7.05207 13.2084C7.10468 12.9507 7.29022 12.7401 7.53668 12.657L8.21237 12.427C8.24283 12.4159 8.26499 12.3882 8.26499 12.3549C8.26499 12.3217 8.24283 12.2912 8.21237 12.2829Z" fill="#FFFDF7" style="fill:#FFFDF7;fill:color(display-p3 1.0000 0.9922 0.9686);fill-opacity:1;"/>
</svg>
