<svg width="33" height="32" viewBox="0 0 33 32" fill="none" xmlns="http://www.w3.org/2000/svg">
    <path d="M31.5 16C31.5 24.2843 24.7843 31 16.5 31C8.21573 31 1.5 24.2843 1.5 16C1.5 7.71573 8.21573 1 16.5 1C24.7843 1 31.5 7.71573 31.5 16Z" fill="white"/>
    <path opacity="0.1" d="M31.5 16C31.5 24.2843 24.7843 31 16.5 31C8.21573 31 1.5 24.2843 1.5 16C1.5 7.71573 8.21573 1 16.5 1C24.7843 1 31.5 7.71573 31.5 16Z" fill="#4E529A"/>
    <path fill-rule="evenodd" clip-rule="evenodd" d="M28.4635 16.9424L27.4665 16.865C27.4887 16.5798 27.5 16.2913 27.5 16C27.5 15.7087 27.4887 15.4202 27.4665 15.135L28.4635 15.0576C28.4877 15.3685 28.5 15.6828 28.5 16C28.5 16.3172 28.4877 16.6315 28.4635 16.9424ZM28.171 13.1974L27.1984 13.4301C27.0632 12.8651 26.8844 12.317 26.6657 11.7896L27.5894 11.4065C27.8282 11.9823 28.0234 12.5806 28.171 13.1974ZM26.7332 9.72928L25.8811 10.2526C25.5788 9.76033 25.2388 9.29356 24.865 8.85633L25.6251 8.20653C26.0326 8.68326 26.4035 9.1923 26.7332 9.72928ZM24.2935 6.87491L23.6437 7.63501C23.2064 7.26123 22.7397 6.92121 22.2474 6.61892L22.7707 5.76677C23.3077 6.09653 23.8167 6.46736 24.2935 6.87491ZM21.0935 4.91057L20.7104 5.83429C20.183 5.61558 19.6349 5.43677 19.0699 5.30158L19.3026 4.32903C19.9194 4.47661 20.5177 4.67182 21.0935 4.91057ZM17.4424 4.03646L17.365 5.03346C17.0798 5.0113 16.7913 5 16.5 5C16.2087 5 15.9202 5.0113 15.635 5.03346L15.5576 4.03646C15.8685 4.01231 16.1828 4 16.5 4C16.8172 4 17.1315 4.0123 17.4424 4.03646ZM13.6974 4.32903L13.9301 5.30158C13.3651 5.43677 12.817 5.61558 12.2896 5.83429L11.9065 4.91057C12.4823 4.67182 13.0806 4.47661 13.6974 4.32903ZM10.2293 5.76677C9.6923 6.09653 9.18326 6.46736 8.70653 6.87491L9.35633 7.63501C9.79356 7.26124 10.2603 6.92121 10.7526 6.61892L10.2293 5.76677ZM7.37491 8.20654L8.13501 8.85634C7.76123 9.29356 7.42121 9.76033 7.11892 10.2526L6.26677 9.72929C6.59653 9.1923 6.96736 8.68326 7.37491 8.20654ZM5.41057 11.4065L6.33429 11.7896C6.11558 12.317 5.93677 12.8651 5.80158 13.4301L4.82903 13.1974C4.97661 12.5806 5.17182 11.9823 5.41057 11.4065ZM4.53646 15.0576C4.5123 15.3685 4.5 15.6828 4.5 16C4.5 16.3172 4.51231 16.6315 4.53646 16.9424L5.53346 16.865C5.5113 16.5798 5.5 16.2913 5.5 16C5.5 15.7087 5.5113 15.4202 5.53346 15.135L4.53646 15.0576ZM4.82903 18.8026L5.80158 18.5699C5.93677 19.1349 6.11558 19.683 6.33429 20.2104L5.41057 20.5935C5.17182 20.0177 4.97661 19.4194 4.82903 18.8026ZM6.26677 22.2707L7.11892 21.7474C7.42121 22.2397 7.76124 22.7064 8.13501 23.1437L7.37491 23.7935C6.96736 23.3167 6.59653 22.8077 6.26677 22.2707ZM8.70654 25.1251L9.35634 24.365C9.79356 24.7388 10.2603 25.0788 10.7526 25.3811L10.2293 26.2332C9.6923 25.9035 9.18326 25.5326 8.70654 25.1251ZM11.9065 27.0894L12.2896 26.1657C12.817 26.3844 13.3651 26.5632 13.9301 26.6984L13.6974 27.671C13.0806 27.5234 12.4823 27.3282 11.9065 27.0894ZM15.5576 27.9635L15.635 26.9665C15.9202 26.9887 16.2087 27 16.5 27C16.7913 27 17.0798 26.9887 17.365 26.9665L17.4424 27.9635C17.1315 27.9877 16.8172 28 16.5 28C16.1828 28 15.8685 27.9877 15.5576 27.9635ZM19.3026 27.671L19.0699 26.6984C19.6349 26.5632 20.183 26.3844 20.7104 26.1657L21.0935 27.0894C20.5177 27.3282 19.9194 27.5234 19.3026 27.671ZM22.7707 26.2332L22.2474 25.3811C22.7397 25.0788 23.2064 24.7388 23.6437 24.365L24.2935 25.1251C23.8167 25.5326 23.3077 25.9035 22.7707 26.2332ZM25.6251 23.7935L24.865 23.1437C25.2388 22.7064 25.5788 22.2397 25.8811 21.7474L26.7332 22.2707C26.4035 22.8077 26.0326 23.3167 25.6251 23.7935ZM27.5894 20.5935L26.6657 20.2104C26.8844 19.683 27.0632 19.1349 27.1984 18.5699L28.171 18.8026C28.0234 19.4194 27.8282 20.0177 27.5894 20.5935Z" fill="#4E529A"/>
    <path fill-rule="evenodd" clip-rule="evenodd" d="M6.60051 25.8995C12.0678 31.3668 20.9322 31.3668 26.3995 25.8995C31.8668 20.4321 31.8668 11.5678 26.3995 6.10048C20.9322 0.633141 12.0678 0.633141 6.60051 6.10048C1.13316 11.5678 1.13317 20.4321 6.60051 25.8995ZM5.18629 27.3137C11.4347 33.5621 21.5653 33.5621 27.8137 27.3137C34.0621 21.0653 34.0621 10.9347 27.8137 4.68627C21.5653 -1.56212 11.4347 -1.56212 5.18629 4.68627C-1.0621 10.9347 -1.0621 21.0653 5.18629 27.3137Z" fill="#4E529A"/>
</svg>
