<svg width="426" height="426" viewBox="0 0 426 426" fill="none" xmlns="http://www.w3.org/2000/svg">
<path d="M385.201 212.228C382.591 248.023 291.841 263.287 234.178 264.46C232.881 264.46 230.919 264.695 230.801 263.741C230.669 262.699 232.733 262.641 234.163 262.582C284.308 261.012 339.715 253.042 370.383 230.779C418.581 188.717 301.588 162.872 236.537 162.623C234.428 162.563 230.743 162.975 230.963 161.39C231.141 160.055 234.591 160.67 236.655 160.715C293.67 161.933 382.547 176.888 385.215 212.228H385.201Z" fill="#222222"/>
<path d="M233.16 269.259C227.823 269.259 226.334 266.617 226.039 264.373C225.832 262.846 226.275 261.363 227.247 260.19C229.061 258.033 231.892 257.901 233.765 257.812H233.941C312.38 255.331 349.786 239.746 367.39 227.036C379.509 216.382 377.017 209.747 376.191 207.561C367.921 185.576 293.021 167.612 236.522 167.392C236.05 167.392 235.652 167.392 235.239 167.392C232.717 167.422 229.577 167.451 227.543 165.176C226.481 163.973 225.98 162.373 226.201 160.759C226.924 155.24 233.175 155.695 235.519 155.857C235.962 155.886 236.389 155.915 236.758 155.93C269.902 156.634 305.746 161.551 332.608 169.066C369.321 179.338 388.636 193.75 389.992 211.875L390.022 212.228L389.992 212.581C388.651 230.911 369.026 245.498 331.635 255.934C304.226 263.58 267.824 268.57 234.281 269.245H234.206H234.133C233.957 269.245 233.765 269.245 233.558 269.245C233.425 269.245 233.293 269.245 233.16 269.245V269.259Z" fill="#222222"/>
<path d="M39.821 212.786C42.4308 176.991 133.18 161.727 190.844 160.554C192.141 160.554 194.102 160.319 194.22 161.273C194.353 162.315 192.288 162.373 190.859 162.432C140.715 164.002 85.3067 171.972 54.6388 194.235C6.44065 236.297 123.434 262.142 188.485 262.391C190.594 262.451 194.279 262.039 194.059 263.624C193.881 264.959 190.431 264.344 188.367 264.299C131.352 263.081 42.4749 248.126 39.8063 212.786H39.821Z" fill="#222222"/>
<path d="M191.464 269.23C190.697 269.23 190.004 269.187 189.503 269.142C189.06 269.113 188.633 269.084 188.264 269.069C155.105 268.364 119.277 263.448 92.413 255.934C55.7006 245.661 36.386 231.262 35.0295 213.138L35 212.786L35.0295 212.433C36.3711 194.103 55.9955 179.515 93.3858 169.08C120.796 161.434 157.198 156.444 190.741 155.769H190.814H190.888C191.066 155.769 191.257 155.769 191.464 155.769C197.081 155.637 198.673 158.352 198.982 160.656C199.189 162.183 198.746 163.679 197.774 164.854C195.96 167.011 193.129 167.143 191.257 167.231H191.08C112.642 169.711 75.2364 185.298 57.632 198.007C45.5125 208.661 48.0041 215.296 48.8299 217.482C57.1012 239.466 132.001 257.43 188.5 257.651C188.972 257.651 189.37 257.651 189.782 257.651C192.303 257.622 195.444 257.592 197.479 259.867C198.541 261.07 199.042 262.67 198.821 264.284C198.245 268.614 194.279 269.274 191.464 269.274V269.23Z" fill="#222222"/>
<path d="M212.496 291.229C213.449 291.229 214.223 255.984 214.223 212.507C214.223 169.03 213.449 133.783 212.496 133.783C211.545 133.783 210.772 169.03 210.772 212.507C210.772 255.984 211.545 291.229 212.496 291.229Z" fill="#222222"/>
<path d="M212.498 295.999C207.588 295.999 207.367 291.728 207.027 285.285C206.821 281.279 206.629 275.555 206.467 268.276C206.143 253.365 205.966 233.567 205.966 212.507C205.966 191.446 206.143 171.648 206.467 156.737C206.629 149.458 206.821 143.735 207.027 139.728C207.367 133.27 207.588 129.014 212.498 129.014C217.407 129.014 217.629 133.285 217.968 139.728C218.174 143.735 218.366 149.458 218.528 156.737C218.852 171.633 219.029 191.446 219.029 212.507C219.029 233.567 218.852 253.38 218.528 268.276C218.366 275.555 218.174 281.279 217.968 285.285C217.629 291.743 217.407 295.999 212.498 295.999Z" fill="#222222"/>
<path d="M212.502 214.225C256.18 214.225 291.589 213.455 291.589 212.507C291.589 211.559 256.18 210.79 212.502 210.79C168.823 210.79 133.416 211.559 133.416 212.507C133.416 213.455 168.823 214.225 212.502 214.225Z" fill="#222222"/>
<path d="M212.498 219.01C191.34 219.01 171.435 218.833 156.47 218.51C149.157 218.349 143.406 218.158 139.382 217.953C132.895 217.615 128.618 217.394 128.618 212.507C128.618 207.621 132.909 207.4 139.382 207.063C143.406 206.857 149.157 206.667 156.47 206.504C171.435 206.182 191.34 206.006 212.498 206.006C233.655 206.006 253.545 206.182 268.524 206.504C275.837 206.667 281.588 206.857 285.613 207.063C292.101 207.4 296.376 207.621 296.376 212.507C296.376 217.394 292.085 217.615 285.613 217.953C281.588 218.158 275.837 218.349 268.524 218.51C253.56 218.833 233.655 219.01 212.498 219.01Z" fill="#222222"/>
</svg>
