<svg width="426" height="426" viewBox="0 0 426 426" fill="none" xmlns="http://www.w3.org/2000/svg">
<path d="M418.983 212.658C415.856 256.045 307.135 274.547 238.053 275.969C236.499 275.969 234.149 276.254 234.007 275.097C233.849 273.834 236.322 273.764 238.035 273.693C298.11 271.79 364.49 262.129 401.231 235.144C458.973 184.16 318.812 152.833 240.879 152.531C238.352 152.458 233.938 152.958 234.201 151.037C234.415 149.418 238.548 150.164 241.021 150.218C309.326 151.695 415.804 169.822 419 212.658H418.983Z" fill="#222222"/>
<path d="M236.612 281C230.203 281 228.414 277.834 228.06 275.145C227.811 273.315 228.343 271.537 229.511 270.132C231.689 267.547 235.089 267.389 237.339 267.282H237.55C331.754 264.309 376.677 245.632 397.819 230.4C412.374 217.632 409.381 209.681 408.389 207.061C398.457 180.714 308.504 159.186 240.65 158.923C240.083 158.923 239.605 158.923 239.109 158.923C236.08 158.959 232.309 158.993 229.866 156.267C228.591 154.825 227.989 152.908 228.255 150.974C229.123 144.36 236.63 144.905 239.445 145.099C239.977 145.134 240.49 145.169 240.933 145.187C280.738 146.03 323.786 151.923 356.047 160.929C400.139 173.239 423.335 190.51 424.964 212.231L425 212.654L424.964 213.077C423.353 235.044 399.784 252.525 354.878 265.031C321.961 274.194 278.243 280.174 237.958 280.983H237.868H237.781C237.569 280.983 237.339 280.983 237.09 280.983C236.93 280.983 236.772 280.983 236.612 280.983V281Z" fill="#222222"/>
<path d="M6.01761 213.342C9.14423 169.954 117.865 151.453 186.948 150.031C188.502 150.031 190.851 149.746 190.993 150.903C191.152 152.166 188.678 152.236 186.966 152.307C126.892 154.21 60.511 163.871 23.7698 190.856C-33.9731 241.84 106.189 273.167 184.122 273.469C186.649 273.542 191.063 273.042 190.8 274.963C190.587 276.581 186.453 275.836 183.981 275.782C115.675 274.305 9.19707 256.178 6 213.342H6.01761Z" fill="#222222"/>
<path d="M188.911 280.947C187.99 280.947 187.158 280.896 186.556 280.842C186.024 280.807 185.511 280.772 185.068 280.754C145.244 279.91 102.215 274.02 69.9522 265.017C25.8611 252.708 2.66457 235.456 1.03543 213.741L1 213.32L1.03543 212.897C2.64667 190.935 26.2153 173.456 71.1205 160.954C104.04 151.793 147.758 145.814 188.043 145.006H188.13H188.219C188.433 145.006 188.662 145.006 188.911 145.006C195.657 144.847 197.569 148.1 197.94 150.861C198.189 152.69 197.657 154.483 196.489 155.891C194.311 158.475 190.911 158.633 188.662 158.739H188.45C94.2469 161.71 49.3233 180.385 28.1807 195.612C13.6254 208.377 16.6177 216.327 17.6095 218.946C27.5432 245.286 117.497 266.809 185.351 267.074C185.918 267.074 186.396 267.074 186.891 267.074C189.919 267.039 193.691 267.003 196.135 269.729C197.41 271.171 198.012 273.088 197.747 275.021C197.055 280.209 192.292 281 188.911 281V280.947Z" fill="#222222"/>
<path d="M213.499 308C214.327 308 215 265.468 215 213.001C215 160.535 214.327 118 213.499 118C212.672 118 212 160.535 212 213.001C212 265.468 212.672 308 213.499 308Z" fill="#222222"/>
<path d="M212.501 313C206.863 313 206.609 307.885 206.218 300.168C205.982 295.37 205.761 288.514 205.575 279.796C205.203 261.937 205 238.224 205 213.001C205 187.776 205.203 164.063 205.575 146.204C205.761 137.486 205.982 130.632 206.218 125.832C206.609 118.097 206.863 113 212.501 113C218.137 113 218.392 118.115 218.782 125.832C219.018 130.632 219.239 137.486 219.425 146.204C219.797 164.045 220 187.776 220 213.001C220 238.224 219.797 261.955 219.425 279.796C219.239 288.514 219.018 295.37 218.782 300.168C218.392 307.903 218.137 313 212.501 313Z" fill="#222222"/>
<path d="M212.499 215C264.69 215 307 214.103 307 212.999C307 211.895 264.69 211 212.499 211C160.308 211 118 211.895 118 212.999C118 214.103 160.308 215 212.499 215Z" fill="#222222"/>
<path d="M212.001 221C186.777 221 163.046 220.782 145.205 220.385C136.486 220.187 129.63 219.952 124.833 219.699C117.099 219.284 112 219.012 112 212.999C112 206.987 117.116 206.715 124.833 206.301C129.63 206.047 136.486 205.813 145.205 205.613C163.046 205.217 186.777 205 212.001 205C237.224 205 260.937 205.217 278.795 205.613C287.514 205.813 294.37 206.047 299.168 206.301C306.903 206.715 312 206.987 312 212.999C312 219.012 306.884 219.284 299.168 219.699C294.37 219.952 287.514 220.187 278.795 220.385C260.955 220.782 237.224 221 212.001 221Z" fill="#222222"/>
</svg>
